<svg xmlns="http://www.w3.org/2000/svg" width="269" height="200" viewBox="0 0 269 200">
    <g fill="none">
        <path fill="#FF8E00" d="M206.553 191.333c-1.499-1.514-2.347-2.567-3.292-4.016-1.043-1.58-1.956-3.26-2.77-5.004-.653-1.383-1.174-2.732-1.826-4.642-.685-2.041-1.271-4.148-1.793-6.255-1.206-4.774-2.086-9.745-3.358-14.551-.358-3.523-1.108-6.88-3.39-9.68-.26-.559-.554-1.118-.847-1.678-1.304-2.436-4.629-3.193-6.91-1.844-2.413 1.416-3.098 4.51-1.826 6.947-1.272 1.25-1.858 3.061-1.37 4.97l5.151 20.972c1.695 6.847 3.097 13.794 5.868 20.28 1.075 2.534 4.759 3.094 6.91 1.843.522-.296.946-.691 1.304-1.086.065.032.163.065.26.098.262.297.522.56.783.856 1.923 1.943 5.216 1.943 7.14 0 1.89-1.942 1.89-5.267-.034-7.21z"/>
        <path fill="#FF8E00" d="M187 184s27.207 3.066 42 3.354c0 0-5.572 2.236-4.04 9.646l-32.877-.351L187 184z"/>
        <path fill="#231F20" d="M37.902 191.837c-.23-5.152-.623-10.272-.82-15.424-.033-1.043-.065-2.087-.065-3.163-.492-8.315-.721-16.63-.721-24.946-.197-.945-.394-1.858-.59-2.804-.132-.098-.263-.196-.361-.326-.426-.228-.82-.457-1.245-.685-.59-.293-.689-.359-1.082-.489-.492.391-.918.848-1.344 1.272-.066.065-.262.293-.328.391-.295.391-.59.783-.852 1.174-.623.913-1.18 1.859-1.672 2.804-2.13 3.979-3.54 8.316-5.408 12.424-.82 1.794-3.441 2.283-5.179 1.598-1.049.228-2 .13-2.851-.196-1.213-.097-2.426-.228-3.671-.163-.82.033-1.705.098-2.622.261-1.115.718-2.197 1.468-3.114 2.315-.721.685-.853.913-1.148 1.794-.163.522-.36 1.043-.458 1.565v.098c-.033.13-.033.293-.066.424 0 .196 0 .424-.033.359v.065c.066.456.099.88.033 1.337.033.717.131 1.435.164 2.12.065 1.401.033 2.836-.033 4.238.033.196.066.424.066.653.098 2.902-.164 5.804-.36 8.706-.034.424-.066.848-.132 1.272.033.359.033.717.033 1.043 0 1.957-.131 4.403.065 6.261l.689 1.076c.032.066.23.261.295.359.065.065.098.13.164.163.229 0 .458.033.688.065 3.966-.195 7.965-.293 11.964-.098.491.033.983.033 1.475.066.458 0 .917 0 1.409.032.721 0 1.442-.195 2.098-.587.065.294.164.587.327.848 1.64.13 3.311.228 4.95.261 3.048-.88 5.998-2.315 8.98-3.293.263-.555.558-1.077.853-1.598-.066-.457-.066-.88-.098-1.272z"/>
        <path fill="#FF8E00" d="M163.836 186.45c-.131-.197-.296-.361-.428-.525.066-.066.165-.099.23-.164.231-.131-1.811-.919-1.58-1.083 5.6-.524 8.96-9.182 8.96-9.182 1.547-3.247 3.096-6.494 4.644-9.74.33-.689.428-1.41.33-2.132 1.514-2.296 3.128-4.526 4.743-6.723v.131c.46-.984 1.12-1.935 1.943-2.853 1.91-2.099 4.315-3.214 6.917-4.23.79-.296 1.582-.558 2.405-.788-.23-.656-.527-1.311-.856-2.099-1.483-3.673-4.15-6.001-7.774-7.411-3.755-1.443-7.544-2.657-11.167-4.264-.692-.328-1.91-.852-2.997-1.18-.462-.558-1.087-.951-1.746-1.214-1.12 2.394-2.57 4.592-4.579 6.363-4.546 4.132-10.87 6.362-17.063 5.968-7.345-.459-14.493-4.69-16.075-12.33-.658-3.182-.46-6.527.56-9.544l-.296-.197c-.395-.36-.856-.623-1.383-.787-6.621-3.28-14.56-.885-21.675.164-8.597 1.28-17.26 1.87-25.957 1.968-.724-.394-1.383-.886-2.009-1.41-.132-.132-.296-.23-.428-.328.494-.951 1.383-1.935 1.91-2.657 1.12-1.574 2.273-3.18 3.393-4.755 2.207-3.05 4.447-6.034 6.852-8.92 1.185-1.443 1.647-3.28.658-4.952-.428-.722-1.152-1.345-1.976-1.706-.725-1.05-1.943-1.705-3.261-1.738l-.198-.197c-1.317-1.311-3.327-1.18-4.644 0-2.339 2.034-4.118 4.493-5.567 7.182-.824.82-1.614 1.673-2.306 2.591-2.273 3.083-4.282 6.526-6.16 9.872-.033.065-.098.098-.131.164-1.746 2.46-3.426 5.444-3.986 8.428-.725 3.771 1.45 6.428 5.04 7.346.197.033.362.098.56.131 1.515.623 3.162.886 4.809 1.017 2.602.23 5.204.328 7.807.426 2.536.099 5.138.263 7.74.328 1.351.099 2.735.131 4.085.164 1.45.394 2.998.59 4.348.754 3.03.427 6.061.624 9.092.755 2.964.164 6.028.262 9.025.688-1.45 4.165-1.45 8.658-2.668 12.79-5.83 19.448 3.887 26.105 3.887 26.105 2.141 1.345 4.579 1.739 6.983 2.1 2.767.426 5.501 1.114 8.202 1.901.956.296 1.944.558 2.833 1.017.099.066.198.164.297.23-.495-.131-.989-.23-1.483-.328-3.425-.689-6.95-.82-10.277-.033 0 0-4.71-.033-6.06 4.985-.759 3.28-1.516 6.526-2.274 9.806-.066.328-.099.655-.099.918.165.59.462 1.05 1.12 1.344 1.516.69 3.426.328 5.205-.13.066-.034.132-.1.165-.132 2.108-.82 4.282-1.476 6.456-2 .856-.033 1.713-.164 2.503-.197 2.043-.099 4.085-.197 6.127-.328 6.16-.328 12.32-.623 18.512-.951 2.043.492 4.118.787 6.292.295 1.812-.426 3.69-1.377 4.183-3.312.428-1.739-.626-3.903-1.713-5.412z"/>
        <path fill="#231F20" d="M107.188 71.398c-2.35-1.969-4.765-3.904-7.18-5.807-.166-.59-.53-1.116-1.06-1.477-.066-.131-.132-.295-.198-.426C92.396 53.222 85.512 43.084 78.1 33.34c-.696-.886-1.722-1.477-2.78-1.313-.365 1.542-.729 3.084-1.291 4.56-1.29 3.511-3.078 6.333-5.494 9.154-.496.591-1.026 1.149-1.555 1.674-2.68 3.084-5.924 5.577-9.597 7.447-1.125.558-1.49 1.542-1.357 2.494.827.426 1.621.951 2.383 1.542.562.23 1.092.459 1.621.689.033 0 .066-.033.1-.033.264-.131.529-.263.76-.394.166.197.398.394.596.558 4.038 3.084 8.936 4.724 13.701 6.43 5.13 1.87 10.226 3.872 15.223 6.004.596.263 1.258.361 1.853.296.133.262.298.492.53.721 1.026 1.018 2.846 1.083 3.872 0 .595-.623 1.224-1.246 1.82-1.902 1.621 1.312 3.276 2.624 4.865 3.97 1.125.95 2.746 1.082 3.872 0 .96-.985 1.125-2.888-.034-3.84z"/>
        <path fill="#202020" d="M156.852 79.376c0 .03-.034.03-.101.03-.202.06-.505.121-.876.121-.168 0-.37-.03-.538-.151-.169-.152-.303-.394-.337-.758 0-.03 0-.151.034-.212.202-.303.471-.606.841-.849.169-.121.37-.242.606-.303.236-.09.405-.121.607-.151.74-.152 1.447-.122 2.12 0 .371.06.741.151 1.078.242.707.212 1.38.515 1.987.91 0 0 .033.03.134.09.068.06.202.152.337.273.27.243.674.576 1.01 1.03.37.455.674 1 .91 1.577.235.576.336 1.212.336 1.758 0 .94-.337 1.545-.572 1.788-.27.273-.404.273-.438.151-.034-.12 0-.363 0-.697 0-.333-.034-.757-.135-1.212 0 .06-.067-.212-.202-.576-.134-.394-.438-.879-.808-1.334-.37-.454-.842-.818-1.246-1.06-.202-.122-.37-.213-.471-.273-.101-.06-.202-.091-.202-.091-.404-.243-.842-.424-1.28-.546-.269-.06-.505-.151-.774-.182-.471-.06-.943-.09-1.313 0-.236.061-.27.061-.37.122-.135.06-.27.182-.337.303zM152.672 75.59c-.035.068-.035.102-.139.136-.278.204-.73.375-1.079.204-.174-.068-.279-.238-.383-.408-.104-.17-.209-.408-.348-.68 0-.035-.035-.103-.035-.137.07-.17.14-.34.14-.476 0-.136 0-.17-.105-.409-.14-.374-.418-.748-.766-1.089-.174-.204-.383-.374-.626-.544-.453-.34-.975-.613-1.497-.817l-.418-.204c-.278-.102-.661-.238-1.149-.34-.487-.103-1.044-.137-1.6-.103-.558.034-1.115.136-1.637.307-.835.306-1.288.68-1.566.918-.279.239-.418.273-.453.137-.035-.137 0-.477.279-.885.243-.409.696-.885 1.288-1.26-.07.035.243-.204.8-.408.557-.238 1.358-.442 2.193-.51.836-.068 1.706.034 2.332.17.314.068.557.136.766.204.174.068.279.102.279.102.591.272 1.183.579 1.705.953.314.238.592.477.87.749.488.51.94 1.089 1.219 1.804.07.17.14.34.209.612.035.238.07.477.035.715 0 .476-.14.885-.314 1.259z"/>
        <path fill="#231F20" d="M161.574 52.337s11.477-5.46 21.919 5.689c10.442 11.15 9.808 14.223 10.976 16.871 1.168 2.681 5.205 7.618-.267 16.348-2.268 3.695-1.401 7.716-1.868 10.397-.467 2.682-1.468 6.997-6.272 9.875 0 0-.834 15.269-14.946 14.451-14.113-.85-12.678-4.152-18.116-.882 0 0 .334-12.098 11.477-14.452 11.176-2.354 11.176-8.436 10.542-13.667-.667-5.231-20.117-15.596-16.915-37.077.034 0 1.368-6.376 3.47-7.553z"/>
        <path fill="#231F20" d="M161 52.894s-5.725-5.495-11.057-1.341c-5.332 4.187-3.435 12.953-13.445 15.046-10.043 2.093-14.361 6.345-12.725 15.406 1.668 9.06 2.976 10.663.163 17.303-2.42 5.69-.294 11.905 8.113 14.947 5.136 1.865 11.548-.36 11.548-.36l-1.014-2.55s-12.791-6.117-8.31-21.392c4.842-16.485 9.65-21.719 17.011-27.148 2.192-1.603 5.398-3.01 7.884-2.977L161 52.894z"/>
        <path fill="#202020" d="M139.267 111.755c-.033-.033-.065-.033-.098-.13-.13-.26-.227-.618-.13-.943.13-.325.455-.585 1.071-.682h.162c.909.52 1.85.975 2.855 1.332l.033.033c.551.195 1.103.357 1.687.487 0 0 .032 0 .13.033.064.032.194.065.324.097.13.033.324.065.519.13.097.033.195.065.324.065.098.033.227.033.357.065.941.228 2.206.293 3.244.26.876-.032 1.46-.13 1.817-.13s.487.065.422.195-.292.293-.681.488c-.195.097-.39.227-.65.292-.259.098-.518.163-.81.26.065 0-.26.098-.779.195-.26.033-.584.098-.908.13-.325.033-.714.033-1.07.065-1.493.033-2.953-.26-2.953-.26l-.422-.097-.422-.13c-.26-.098-.551-.163-.81-.26h-.033c-1.103-.39-2.174-.878-3.18-1.495zM144.833 90.766h-.068c-.17-.03-.407-.088-.747-.205-.305-.117-.679-.293-.984-.645 0 0-.034-.058-.034-.088.034-.029.272-.38.78-.85.272-.234.612-.468 1.053-.644.204-.088.476-.175.713-.234.238-.059.51-.088.781-.088.272-.03.51 0 .747.03.238.029.475.087.679.146.204.088.441.117.645.205.204.088.373.176.543.293.17.117.306.205.408.322.101.117.203.205.271.293l.204.264s.034.088.068.205c.034.117.068.293.102.498.034.38-.068.85-.272 1.172-.272.556-.577.615-.747.527-.17-.088-.305-.352-.407-.615-.034.029-.102-.293-.238-.557l-.102-.176c-.034-.058-.068-.088-.102-.117l-.101-.088s-.034-.029-.068-.088l-.102-.087c-.034-.03-.102-.06-.17-.118-.204-.146-.815-.322-1.256-.293-.441 0-.849.235-1.154.47-.136.116-.272.233-.34.321s-.102.147-.102.147z"/>
        <path fill="#231F20" d="M145.981 75.188s-.7-1.894-2.648-.899c-2.71 1.413-.7 4.11.852 3.661 1.461-.417 1.918-1.606 1.796-2.762zM158.982 83.188s-.7-1.894-2.649-.899c-2.71 1.413-.7 4.11.853 3.661 1.43-.417 1.918-1.606 1.796-2.762z"/>
        <path fill="#202020" d="M82.418 120.083c.065 0 .065 0 .13.062.226.186.452.495.452.804 0 .309-.259.649-.776.989-.033 0-.097.062-.162.062-.938-.155-1.908-.062-2.846.216-.097.03-.194.062-.29.093l-.292.092-.388.155-.388.185-.388.186-.356.216s-.162.062-.42.217c-.26.154-.647.34-1.068.587-.84.494-1.875 1.205-2.716 1.823-.712.557-1.165.897-1.456 1.082-.29.185-.452.185-.452.062-.033-.247.42-1.051 1.164-1.916-.097.061.776-.958 1.843-1.886.518-.463 1.1-.896 1.553-1.236.226-.154.42-.278.55-.37.129-.094.226-.124.226-.124.226-.155.517-.248.776-.371.259-.124.517-.217.809-.34l.355-.124c.13-.03.227-.062.356-.093 1.229-.432 2.523-.556 3.784-.37z"/>
        <path fill="#202020" d="M82.9 120s.036 0 .072.03c.141.09.354.241.567.513.177.271.355.603.461 1.025v.09l-.213.09c-.106.06-.283.151-.46.272-.355.241-.78.663-1.136 1.115-.354.483-.638.995-.78 1.417-.177.422-.248.694-.248.694s-.106.18-.284.422c-.177.24-.39.542-.602.814-.639.904-1.064.482-1.206-.181-.036.03-.071-.362-.071-.784 0-.422.035-.844.035-.844s.036-.09.071-.241c.036-.151.142-.362.249-.603.212-.483.532-1.146.993-1.749.46-.603 1.063-1.176 1.595-1.537.284-.181.497-.332.674-.422.142-.06.248-.121.284-.121z"/>
        <path fill="#202020" d="M140.07 113.493c0-.034 0-.07.065-.104.196-.175.49-.35.818-.385.327-.035.72.14 1.014.874 0 .035.033.14.033.21-.36 1.293-.916 2.411-1.374 3.494-.262.594-.524 1.154-.72 1.748-.098.28-.196.559-.294.873l-.098.42-.099.314c-.032.105-.065.21-.13.315-.328.839-.884 1.468-1.505 1.957-.328.245-.687.454-1.08.594-.393.14-.85.245-1.341.175-.131-.035-.23-.035-.393-.07-.164-.07-.196-.07-.294-.105l-.458-.175c-.295-.105-.59-.244-.884-.35l-1.766-.733c-1.145-.49-2.29-.979-3.436-1.398-2.29-.874-4.58-1.538-6.87-1.433h-.425l-.458.035-.916.07c-.622.035-1.244.07-1.832.14-1.244.105-2.454.21-3.697.314-4.94.455-9.848 1.014-14.82 1.398-2.487.21-4.974.385-7.46.455l-2.29.07s-.196 0-.524-.036c-.327-.034-.785-.07-1.308-.104-.524-.035-1.113-.105-1.701-.175l-.884-.105c-.163-.035-.294-.035-.425-.07-.164-.035-.294-.035-.458-.105-.49-.105-.883-.314-1.145-.454-.295-.14-.49-.28-.622-.384-.294-.21-.36-.35-.229-.42.131-.07.426-.105.85-.035.426.035.917.14 1.375.105-.033 0 .196-.035.687-.07.49-.035 1.178-.07 1.898-.105.687-.035 1.406-.104 1.93-.14.261 0 .49-.034.621-.034.164 0 .23-.035.23-.035l.98-.035h.492l1.406-.07c2.421-.105 4.842-.28 7.263-.49 4.842-.419 9.684-.943 14.559-1.397l3.664-.315c.622-.035 1.21-.07 1.832-.14l.916-.07c.295-.035.655-.035.982-.035 2.65 0 5.136.77 7.459 1.678 1.178.454 2.29.944 3.435 1.398.556.245 1.113.454 1.701.699.295.105.557.21.851.314l.425.14h.164c.262.035.687-.14 1.047-.42.36-.279.654-.698.785-1.048.033-.035.033-.104.033-.14 0-.034 0-.034.032-.07l.033-.14c.033-.174.098-.349.131-.523.098-.35.196-.664.327-.979.23-.664.524-1.258.785-1.852.36-.979.851-2.027 1.113-3.04zM203.985 184.99c0 .033.033.066 0 .131-.163.522-.686 1.338-1.83.555-.033 0-.098-.098-.131-.13-.327-1.078-.654-2.122-.98-3.199-.524-1.566-1.112-3.133-1.668-4.732-.556-1.599-1.08-3.23-1.537-4.862-.948-3.23-1.83-6.494-2.615-9.79-.393-1.631-.752-3.296-1.112-4.96l-.49-2.48c-.098-.424-.164-.816-.262-1.207-.098-.392-.196-.784-.294-1.208-.425-1.599-.883-3.198-1.406-4.764-.261-.783-.523-1.567-.817-2.35l-.229-.587-.098-.294c-.033-.098-.065-.196-.098-.26-.13-.295-.294-.588-.49-.85-.425-.554-.981-1.011-1.602-1.403-.164-.097-.327-.195-.49-.26l-.132-.066c-.065-.033-.098-.033-.163-.098l-.098-.065-.262-.163-1.046-.653c-.686-.457-1.406-.848-2.125-1.273-.72-.391-1.438-.815-2.19-1.174-2.943-1.501-6.016-2.807-9.154-4.112-3.106-1.305-6.245-2.643-9.252-4.275l-.295-.163c-.098-.033-.229-.13-.196-.13l-.098-.066-.229-.13-.425-.262-.882-.49s-.164-.13-.426-.325c-.261-.196-.653-.49-1.111-.816l-.294-.196-.164-.098c-.032-.033-.032-.13-.065-.163-.033-.13-.066-.229-.098-.359-.033-.13-.066-.261-.066-.326-.065-.327-.065-.686-.065-1.012.033-.685.196-1.305.36-1.827.261-.914.523-1.469.686-1.763.164-.326.294-.391.36-.293.065.098.13.424.13.816 0 .424-.032.946-.065 1.468.033-.065 0 .261 0 .718 0 .457.033 1.077.229 1.566.033.033.033.066.065.066h.033l.196.097c.295.164.556.294.785.425.458.26.785.391.785.391l.817.49.425.228.098.065.163.098.262.13 1.079.588c2.877 1.501 5.917 2.774 8.99 4.047 3.04 1.272 6.147 2.578 9.122 4.177.752.391 1.47.783 2.19 1.24l1.079.652 1.079.686.523.326.196.13.262.131c.392.229.784.457 1.177.75.752.555 1.438 1.273 1.928 2.122.131.228.23.457.327.685.098.229.164.392.23.588l.424 1.174c.262.784.556 1.567.785 2.383.49 1.599.98 3.198 1.373 4.83.196.815.36 1.663.523 2.48l.49 2.414c.327 1.6.687 3.198 1.08 4.797.751 3.198 1.634 6.364 2.55 9.529.457 1.566.947 3.133 1.503 4.666.556 1.534 1.112 3.1 1.635 4.7.458 1.142.817 2.219 1.111 3.295z"/>
        <path fill="#202020" d="M189.976 198.797c.032.033.032.066 0 .131-.033.262-.13.621-.39.85-.258.23-.647.327-1.295.066-.033 0-.13-.066-.162-.098-.519-1.014-1.005-2.06-1.459-3.074-1.944-4.35-3.564-8.863-4.763-13.507-.324-1.177-.584-2.289-.875-3.433-.292-1.145-.616-2.257-.94-3.401l-1.944-6.802c-.648-2.29-1.264-4.579-1.75-6.933-.097-.589-.26-1.178-.324-1.799l-.162-1.047s0-.032 0 0l-.195.426c-.518 1.046-.972 2.125-1.426 3.172-.907 2.158-1.685 4.35-2.333 6.573-.324 1.145-.648 2.322-.875 3.466-.13.59-.226 1.178-.324 1.766-.097.589-.194 1.178-.291 1.799-.39 2.42-.778 4.84-1.2 7.26-.226 1.21-.453 2.42-.745 3.63l-.097.458-.097.36-.032.163-.098.327c-.097.458-.227.883-.356 1.34 0 0-.26.753-.68 1.734-.422.981-1.038 2.191-1.621 3.14-.486.817-.842 1.308-1.102 1.57-.259.26-.389.294-.421.163-.097-.262.194-1.178.518-2.257-.064.098.39-1.177.778-2.485.39-1.308.648-2.682.648-2.682.13-.392.227-.817.324-1.21l.065-.294.097-.392.098-.426.194-.85c.227-1.112.454-2.256.648-3.4.421-2.257.778-4.58 1.134-6.868l.13-.85.162-.884c.097-.588.194-1.177.356-1.733.26-1.177.551-2.322.875-3.434.68-2.322 1.491-4.578 2.398-6.77.454-1.111.94-2.19 1.459-3.27l.097-.196.162-.327.356-.719c.227-.49.486-.981.778-1.472.551-1.013 1.07-1.864 1.588-2.78l.778-1.307.162-.262.064-.13.033-.066.032-.033v.065l-.065 1.112-.13 2.584-.032.654v.524l.065.947.065.949.032.49v.229l.033.098.13.85c.097.557.226 1.145.324 1.701.486 2.257 1.101 4.546 1.717 6.802l1.944 6.802c.324 1.145.648 2.29.94 3.434.324 1.145.583 2.322.907 3.434 1.167 4.513 2.755 8.928 4.667 13.18.454.947.94 1.961 1.426 2.942z"/>
        <path fill="#202020" d="M167.95 183.997c.033 0 .066-.035.134 0 .235.068.571.24.773.55.202.31.235.758-.202 1.343 0 .034-.1.103-.134.138-1.177.344-2.354.585-3.531.757-1.177.172-2.354.24-3.531.206-.673-.034-1.379-.068-2.051-.172 0 0-.202-.069-.572-.137-.336-.104-.84-.241-1.379-.448-1.076-.413-2.354-1.24-3.194-2.1-.37-.378-.64-.688-.807-.964-.202-.275-.303-.516-.37-.688-.135-.344-.101-.482.033-.482.135 0 .404.172.706.413.169.103.37.241.538.379.202.137.438.275.673.413-.034-.035.202.138.639.344.403.241 1.009.482 1.648.689.639.206 1.278.31 1.782.378.235.035.47.035.605.069h.236c.504.069 1.042.103 1.547.138 1.042.034 2.118-.035 3.194-.207 1.11-.069 2.186-.31 3.262-.62zM113.045 178.387c-.033 0-.033-.026-.033-.053-.034-.16 0-.4.165-.614.165-.24.462-.48.859-.693 0 0 .066-.027.1-.027 0 0 .098.053.297.133l.793.32c.66.24 1.586.48 2.544.64.959.161 1.95.241 2.677.241.364 0 .661.027.892 0h.33s.067 0 .232.027c.132 0 .33.053.562.053.43.027 1.025.107 1.487.16 1.62.134 1.124.56.132.907.033 0-.099.054-.33.107s-.529.107-.826.187c-.298.053-.628.133-.86.16-.23.026-.396.053-.396.053s-.529.027-1.355 0c-.397 0-.892-.053-1.388-.08-.496-.053-1.058-.107-1.586-.213-1.09-.187-2.148-.454-2.941-.747-.827-.267-1.322-.534-1.355-.56z"/>
        <path fill="#231F20" d="M233.503 187.445s-5.578 1.457-2.656 11.555c0 0 .531-5.53 4.117-7.715 2.756-1.688 6.874-.728 8.036.034 0-.034-1.96-5.96-9.497-3.874z"/>
        <path fill="#202020" d="M236.59 190.339c-.033 0-.066 0-.131-.068-.394-.37-.92-1.214.295-1.956.033 0 .131-.067.164-.067l3.349.573 1.871.304.624.1.755-.235 6.862-2.091 1.707-.506.23-.068.098-.033h.099c.59-.54-.788.742-.657.573l.033-.067.033-.068.033-.034c.197-.303.394-.438.59-.54.1-.033.198-.067.263-.1.066-.034.165-.034.23-.034.591-.068.952.034 1.313.135.69.236 1.28.506 1.839.843.558.303 1.083.674 1.576 1.012 1.247.877 2.364 1.754 3.513 2.698l.853.708.526.439.985.843s.13.135.36.337c.23.202.526.472.887.708.197.135.394.236.624.338.131.067.295.135.46.202.164.067.295.169.46.27.59.37 1.05.843 1.411 1.281.657.742.952 1.35 1.083 1.687.132.37.066.506-.065.472-.263-.034-.952-.708-1.806-1.35.033.035-.197-.134-.59-.37-.198-.135-.428-.236-.69-.371-.132-.034-.263-.101-.394-.135-.164-.034-.296-.101-.46-.135-.755-.202-1.543-.64-2.003-.978-.23-.169-.426-.304-.558-.405-.131-.1-.197-.168-.197-.168-.69-.574-1.05-.945-2.298-1.957-1.05-.843-2.134-1.686-3.217-2.462-.46-.337-.952-.64-1.445-.91-.492-.27-.985-.506-1.412-.641-.065-.034-.098-.034-.164-.034-.033 0-.098-.034-.131-.034h-.099-.032c0-.067-.033-.168-.066-.236-.033-.067-.033-.135-.066-.202s-.033-.101-.098-.135c-.033-.034-.066-.067-.164-.135.328.203-.723-.438.689.439l.033-.068.033-.067c.131-.135-1.215 1.113-.657.607h-.098l-.099.034-.23.067-1.707.506-6.862 2.091-1.05.304-.099.033h-.131l-.23-.033-.328-.068-.46-.067-1.871-.304-3.316-.472z"/>
        <path fill="#202020" d="M256 194.466v-.062c.065-.312.421-.936 1.23-1.373 0 0 .066-.031.098-.031 0 0 .292.218.648.53.389.312.907.687 1.458 1.061.518.375 1.069.718 1.49.967l.68.406s.615.562 1.004 1.06c.357.375.454.625.357.78-.098.157-.422.22-.81.188.032.031-.389-.031-.81-.156-.421-.094-.81-.25-.81-.25s-.065-.03-.194-.124c-.13-.063-.324-.188-.551-.312-.421-.281-1.004-.624-1.555-1.03-.55-.374-1.101-.78-1.49-1.123-.453-.281-.745-.5-.745-.53zM251 194.686v-.072c.064-.143.16-.43.354-.717.193-.287.482-.61.868-.861l.065-.036s.225.215.546.502c.322.287.772.646 1.19 1.005.901.717 1.834 1.255 1.834 1.255s.128.144.29.36c.16.214.385.465.546.717.611.753.225 1.112-.418 1.148.032.035-.322 0-.676-.108-.193-.036-.353-.072-.482-.108-.129-.036-.225-.071-.225-.071s-1.03-.61-1.994-1.364c-.483-.358-.933-.753-1.287-1.076-.386-.359-.611-.574-.611-.574zM139.985 142.43c0-.034.034-.067.1-.1.437-.333 1.344-.731 1.881.565 0 .033.034.132.034.166l-1.041 3.256-1.88 5.913-.572 1.828s-1.175 2.923-2.15 4.95c-1.578 3.422-1.544 1.86-1.074-.399-.1.233 1.31-5.415 1.31-5.415l.504-1.562 1.88-5.913 1.008-3.29z"/>
        <path fill="#231F20" d="M142.5 147c-2 0-2 3 0 3s2-3 0-3z"/>
        <path fill="#FFF" d="M160.437 52.258c0-.033 0-.033.033-.066.198-.196.662-.392.927.229 0 0 .033.065.033.098-.132.523-.265 1.079-.397 1.602-1.193 5.72-1.358 11.67-.265 17.423.265 1.439.63 2.844 1.06 4.25.232.687.463 1.373.728 2.06.133.326.265.686.398 1.013l.463 1.013c.133.327.299.654.464.981l.497.98.563.949.265.457.298.458.63.98s.033.099.132.23c.1.13.199.326.331.555.133.23.298.49.43.72.166.261.332.49.464.751.994 1.57.365 1.144-.463.327.033.033-.464-.425-.895-.98-.231-.262-.463-.556-.629-.752-.165-.196-.298-.36-.298-.36l-.861-1.34c-.762-1.275-1.49-2.55-2.054-3.923-1.225-2.68-2.053-5.525-2.616-8.434-.265-1.438-.43-2.91-.563-4.38-.1-1.471-.133-2.942-.1-4.413.067-2.943.398-5.852.994-8.729.133-.62.265-1.144.43-1.7zM193.953 84.318c0-.031 0-.031.033-.062.17-.187.575-.497.98.062 0 0 .034.062.034.093-.034.558-.135 1.117-.304 1.644-.27.962-.676 1.893-1.216 2.762-.17.28-.338.528-.507.776 0 0-.237.31-.608.683-.372.372-.879.838-1.318 1.148-.743.559-1.047.652-1.047.528 0-.125.304-.497.642-.931-.034.03.372-.466.777-.993.203-.28.405-.528.507-.745.135-.217.236-.342.236-.342.135-.217.27-.403.406-.62.506-.807.878-1.645 1.114-2.514.136-.465.237-.993.27-1.49zM193 79.346c.174-.099.565-.272 1.13-.346h.044s.087.099.174.223c.087.123.217.296.304.47.218.346.348.692.348.692s-.043.247-.217.42c-.218.297-.522.198-.74.074 0 0-.086-.074-.217-.148-.087-.074-.174-.173-.174-.173s-.13-.297-.304-.594c-.087-.148-.174-.296-.261-.395 0-.149-.087-.223-.087-.223zM186.417 111h.068c.136.032.34.097.442.227.102.13.102.356-.034.647 0 0-.034.065-.068.065-.51.227-.986.486-1.428.777-.783.518-1.463 1.198-1.837 2.008-.068.097-.068.194-.102.292-.034.097-.068.194-.102.323-.034.227-.068.421-.102.68-.034.26-.068.519-.136.778l-.102.388-.102.389c-.306 1.004-.817 1.943-1.429 2.817-.17.194-.34.421-.51.615-.17.195-.34.389-.544.583l-.408.389-.409.356s-.068.065-.238.162c-.136.097-.34.227-.578.389-.476.291-1.088.615-1.632.81-.919.355-1.225.355-1.157.226.034-.13.442-.389.918-.745-.068.032.51-.356 1.055-.777.544-.421 1.054-.907 1.054-.907.102-.097.238-.194.34-.324l.409-.388c.17-.162.34-.357.476-.518.136-.195.306-.357.442-.55.544-.778.952-1.588 1.224-2.494.136-.454.238-.907.272-1.36l.034-.162.034-.195.069-.42.136-.39.068-.194.102-.194c.476-1.004 1.292-1.781 2.176-2.396.51-.389 1.055-.68 1.6-.907z"/>
        <path fill="#202020" d="M78.552 122.888c-.033.033-.033.033-.134.066-.535.131-1.54.065-1.406-1.314 0-.033.034-.131.067-.164.804-.821 1.607-1.61 2.377-2.43 3.281-3.383 6.461-6.864 9.575-10.444l1.239-1.444s.535-.559 1.305-1.314c.737-.755 1.708-1.675 2.511-2.43 2.712-2.595 2.11-1.183.837.755.1-.066-.703 1.051-1.54 2.2-.837 1.15-1.707 2.3-1.707 2.3l-1.072 1.247c-3.113 3.58-6.327 7.094-9.641 10.509-.804.854-1.607 1.675-2.41 2.463z"/>
        <path fill="#202020" d="M83.415 90.138c.033-.033.033-.065.131-.065.524-.164 1.507-.164 1.441 1.241 0 .033-.032.131-.032.164l-1.278 1.47-.622.752-.59.654c-1.146 1.34-2.293 2.68-3.407 4.02-4.487 5.393-8.648 11.014-12.382 16.963-.95 1.47-1.867 2.974-2.752 4.477l-.655 1.144c-.229.36-.491.784-.59 1.079-.294.653-.49 1.438-.589 2.222-.098.817-.131 1.634-.065 2.451 0 .425.065.817.098 1.242.065.425.098.817.196 1.242.164.817.393 1.602.688 2.353.295.752.688 1.438 1.147 1.961.065.066.098.131.164.196l.229.197.23.196.228.163.23.163.262.164.262.163.262.131c.688.392 1.474.686 2.26.948 1.573.49 3.276.752 4.98.915 3.439.327 6.944.261 10.482.327.884 0 1.801.032 2.686.098.458.032.917.065 1.343.13l1.31.131 5.274.556c3.505.36 7.01.686 10.515.915 1.736.13 3.505.229 5.274.294l.655.033h.131c-.197-.262 1.834 2.255.983 1.21l-.033.163c-.033.13-.033.228-.066.36-.065.228-.13.49-.229.75-.033.066-.033.131-.098.23l-.066.13-.065.131-.033.065-.065.098c-.066.066-.066.098-.197.23-.033.032-.164.13-.033.032l-.065.033c-.033.032-.066.065-.099.065-.032.033-.032.033 0 0h.033s.033 0 0-.065l-.065-.164c0-.033-.066-.13-.033-.13l.033-.131.065-.164c.033-.032-.033-.065.099-.065h.524c.13.033.13-.033.13-.098l.328-1.7.066-.392c0-.065.033-.13.033-.196l-.066-.098-.066-.098c-.032-.033-.032-.098-.065-.065h-.197c-.36-.033-.163 0 .23 0h.164c.032 0 0 .032 0 .065v.065l-.066.327-.131.654-.622 3.105-.525 2.582c-.36 1.732-.72 3.431-1.015 5.164-.328 1.732-.59 3.431-.819 5.163-.23 1.733-.393 3.465-.459 5.164-.065 1.7 0 3.432.263 5.066l.098.621.13.589.165.588.196.588c.295.752.655 1.504 1.081 2.255.852 1.504 1.867 2.974 2.817 4.576.36.62.688 1.307 1.016 1.994.262.686.59 1.405.786 2.124.098.36.23.719.295 1.079.098.359.164.719.262 1.078l.196 1.111c.066.36.099.752.131 1.112.131 1.47.164 2.941.066 4.412 0 .196 0 .36-.033.555l-.033.458v.098l-.032.196c-.033.523-.099 1.079-.164 1.602 0 0-.033.196-.098.522-.066.327-.164.785-.295 1.308-.262 1.046-.623 2.32-.983 3.333-1.146 3.53-1.31 1.994-1.081-.294-.033.098.131-1.242.262-2.614.066-.687.131-1.373.164-1.896.033-.523.065-.882.065-.882l.099-.687.065-.686.033-.262c.033-.326.033-.62.065-.947 0-.327.033-.621.033-.948.033-1.275-.033-2.517-.196-3.759-.328-2.484-1.049-4.837-2.326-6.994-.885-1.503-1.9-2.974-2.817-4.608-.459-.785-.852-1.634-1.212-2.517l-.23-.686-.196-.687-.164-.719-.13-.686c-.296-1.83-.361-3.66-.263-5.458.066-1.798.262-3.595.491-5.36.23-1.765.492-3.53.82-5.262.327-1.732.654-3.464 1.015-5.197l.95-4.64c0-.23.917 1.11.491.522-.033-.032-.13-.13-.23-.196-.032-.032-.097-.065-.163-.098-.065-.032-.131-.098-.197-.13v-.033c0-.033.033-.066.033-.098.066-.13.099-.327.131-.523.033-.098.033-.196.066-.294l.033-.164c-.852-1.078 1.179 1.438.95 1.177h-.132l-.655-.033c-1.769-.065-3.537-.196-5.306-.294-3.538-.261-7.076-.588-10.58-.915l-5.275-.556-1.31-.13c-.426-.033-.852-.098-1.278-.098-.851-.066-1.736-.066-2.587-.099-3.505-.065-7.076.033-10.647-.326-1.801-.196-3.603-.458-5.404-1.014-.885-.294-1.77-.62-2.621-1.078l-.328-.163-.294-.197-.295-.196-.295-.228-.295-.23-.295-.228-.294-.261c-.099-.099-.197-.197-.263-.295-.72-.784-1.212-1.666-1.54-2.549-.36-.882-.622-1.797-.785-2.713-.099-.457-.164-.915-.23-1.372-.032-.458-.098-.915-.13-1.406-.066-.915 0-1.863.098-2.81.13-.948.327-1.896.786-2.844.23-.523.458-.85.688-1.242l.688-1.144c.917-1.503 1.834-3.04 2.784-4.51 3.8-5.98 8.025-11.7 12.546-17.159 1.146-1.372 2.26-2.712 3.44-4.052l.59-.687.654-.751 1.114-1.57z"/>
        <path fill="#202020" d="M81.033 93.325C81 93.291 81 93.256 81 93.152c0-.31.099-.69.361-.932.263-.242.69-.311 1.314-.07.033 0 .131.07.131.104.23.484.558.933.854 1.382l.493.622c.098.104.164.207.262.31l.263.277.525.553.559.518c.197.173.394.346.59.484l.625.484c.853.587 1.707 1.14 2.66 1.623l.394.208.427.207c.295.138.558.276.82.38 0 0 .165.104.46.242.296.138.69.345 1.15.587.92.484 2.134 1.037 3.12 1.52 1.707.76 2.167 1.14 1.937 1.279-.23.138-1.182.069-2.332-.173.099.069-1.248-.242-2.627-.657-.69-.207-1.379-.414-1.904-.621-.263-.104-.493-.173-.624-.208-.165-.069-.23-.103-.23-.103-.493-.242-1.018-.45-1.51-.726-1.019-.484-1.971-1.105-2.924-1.762l-.69-.518c-.229-.173-.459-.346-.656-.553l-.657-.587c-.197-.207-.394-.415-.624-.622l-.328-.346c-.099-.103-.197-.241-.296-.38l-.59-.725c-.263-.553-.657-1.071-.92-1.624z"/>
        <path fill="#202020" d="M89.302 98.986c-.03 0-.03.031-.062 0-.31-.062-.992-.406-1.24-1.343v-.093c.031-.031.372-.344.9-.875.526-.5 1.208-1.186 1.86-1.904 1.332-1.405 2.51-2.904 2.51-2.904s.249-.219.559-.5c.34-.281.744-.624 1.116-.905 1.209-.968 1.209-.25.837.655.03-.031-.217.5-.496 1-.28.5-.59 1.03-.59 1.03s-1.208 1.53-2.573 2.966c-.682.719-1.364 1.437-1.89 1.936-.528.562-.9.906-.93.937z"/>
        <path fill="#202020" d="M91.934 95c-.066 0-.066 0-.163-.032-.26-.096-.586-.32-.717-.607-.13-.32-.032-.703.359-1.214 0-.032.097-.096.13-.096 1.01-.16 1.954-.51 2.833-.99 1.27-.703 2.41-1.693 3.55-2.779.292-.287.585-.543.878-.83l.228-.224c0 .032.098-.096.13-.16l.391-.415c.521-.575 1.01-1.15 1.498-1.789.391-.48.75-.958 1.108-1.437 0 0 .13-.128.325-.384.098-.128.228-.255.358-.415.13-.16.293-.32.391-.48.098-.127.13-.223.163-.255v-.128c0-.063-.065-.095-.098-.16-.097-.127-.293-.223-.456-.287-.195-.064-.358-.064-.586-.032-.358.064-.684.224-.944.352-.26.127-.456.255-.619.32-.325.159-.456.159-.456 0 0-.129.13-.384.391-.736.26-.32.684-.766 1.335-1.022-.032 0 .033-.032.196-.096.162-.064.488-.127.814-.096.358.032.749.128 1.172.384.195.128.39.32.553.543.163.223.294.543.294.862.032.32-.033.607-.13.863-.098.255-.196.447-.294.607-.195.287-.358.543-.488.766-.293.448-.489.735-.489.735-.325.415-.651.863-.977 1.278-.52.639-1.042 1.246-1.563 1.853l-.423.447c-.065.064-.098.128-.26.287l-.228.192c-.293.256-.554.511-.847.799-1.14 1.086-2.41 2.268-3.973 3.098-1.01.64-2.182 1.086-3.386 1.278zM89.806 74.977c-.034 0-.067 0-.101-.062-.168-.124-.269-.34-.504-.618-.1-.123-.201-.278-.201-.494.034-.216.235-.494.604-.71.034-.031.168-.062.202-.093.738.03 1.343.154 1.913.278.605.124 1.175.278 1.746.432.739.217 1.477.464 2.216.71.604.217 1.209.433 1.847.65 0 0 .738.34 1.678.833.47.248 1.007.556 1.545.896l.402.278c.068.062.135.093.202.155l.1.092.068.062c.201.185.403.37.604.525.1.062.168.155.269.216l.302.278c.168.186.268.371.302.587 0 .186-.067.34-.134.494-.067.124-.168.217-.235.31-.269.246-.403.246-.437.123-.033-.062 0-.155 0-.278 0-.093.034-.216 0-.309 0-.124-.1-.216-.235-.278-.067-.03-.134-.062-.201-.062-.1-.03-.235-.123-.37-.185.034.03-.235-.093-.705-.37-.134-.093-.167-.093-.302-.155-.1-.062-.235-.124-.369-.186-.269-.123-.604-.247-.906-.37-1.276-.494-2.653-.896-2.653-.896l-1.51-.556c-.706-.247-1.41-.463-2.116-.68-.537-.154-1.074-.308-1.611-.401-.437-.093-.974-.185-1.41-.216zM95.69 72.463c.032.033.064.033.097.066.259.364.485 1.158-.615 1.456-.032 0-.097.033-.162 0l-2.524-1.092c-3.27-1.39-6.603-2.747-9.904-4.104-3.3-1.357-6.602-2.714-9.903-4.137-3.301-1.39-6.57-2.813-9.87-4.27l-4.92-2.184-1.65-.761s-.551-.298-1.328-.728c-.744-.43-1.683-.993-2.427-1.457-2.59-1.588-1.36-1.423.42-.827-.096-.066.972.33 2.04.761 1.068.397 2.168.828 2.168.828l2.039.926 4.822 2.152c3.204 1.423 6.44 2.813 9.677 4.17 3.236 1.357 6.473 2.714 9.741 4.038 3.237 1.324 6.506 2.647 9.742 4.038.874.397 1.715.76 2.557 1.125zM102.985 64.123c0 .032.033.065 0 .13-.033.262-.2.59-.465.687-.266.131-.631.033-1.064-.163-.033 0-.1-.066-.1-.098-.265-.72-.764-1.505-1.262-2.257-.964-1.472-2.094-2.845-3.19-4.285-.266-.36-.565-.72-.831-1.112l-.765-1.112-1.528-2.224-6.115-8.929c-2.028-2.976-4.055-5.985-6.049-8.961l-2.99-4.514-.998-1.537s-1.263-2.257-1.994-3.925c-1.33-2.78-.332-1.93.83-.425-.032-.098.632.818 1.33 1.766.698.916 1.396 1.897 1.396 1.897l1.23 1.897 2.924 4.416c1.961 2.943 3.955 5.887 5.949 8.798l6.015 8.765 1.496 2.191.764 1.08c.233.327.499.687.765 1.046 1.096 1.407 2.193 2.813 3.223 4.318.532.72 1.064 1.537 1.43 2.55z"/>
        <path fill="#202020" d="M52.365 55c-.064 0-.064 0-.16-.032-.128-.033-.287-.163-.415-.293-.128-.13-.191-.324-.16-.454.032-.13.128-.227.256-.357.064-.065.096-.13.128-.227.031-.033.063-.097.063-.13.032-.032.032-.065.064-.13l.064-.065c.287-.032.702-.13 1.085-.292.383-.13.798-.324 1.181-.487.352-.162.703-.357 1.054-.519l1.021-.616c.351-.195.67-.422 1.022-.65.319-.227.67-.454.99-.681 1.308-.941 2.521-2.012 3.702-3.116 2.33-2.239 4.31-4.868 6.193-7.562.926-1.363 1.851-2.726 2.745-4.121l.67-1.039c.224-.357.48-.714.64-1.006.382-.681.733-1.395 1.052-2.142.32-.746.607-1.493.894-2.272.256-.779.511-1.557.703-2.304.063-.195.063-.357.127-.552.032-.162.032-.324.032-.486 0-.325-.064-.552-.16-.65-.095-.097-.191-.162-.414-.162-.224 0-.543.13-.862.26-.32.13-.67.39-.99.584-.351.195-.67.422-.99.65-.67.453-1.308.94-1.947 1.46-1.277 1.006-2.49 2.11-3.639 3.245-2.33 2.272-4.533 4.738-6.544 7.302-2.01 2.597-3.894 5.29-5.394 8.179l-.383.746-.16.357-.32.714s-.063.13-.19.357c-.128.227-.288.552-.448.941-.191.357-.35.812-.542 1.234-.16.454-.32.876-.447 1.298-.192.714-.256 1.168-.32 1.46-.063.292-.127.357-.223.292s-.16-.292-.255-.649c-.032-.162-.064-.357-.064-.584-.032-.227-.032-.454 0-.714-.032.097.032-1.103.351-2.24.16-.584.32-1.135.479-1.557.064-.227.128-.39.191-.52.032-.13.064-.194.064-.194l.351-.747c.064-.13.128-.26.192-.357l.287-.551c.192-.39.383-.747.607-1.104 1.628-2.92 3.543-5.614 5.618-8.178 2.075-2.564 4.277-4.998 6.671-7.27 1.213-1.136 2.458-2.207 3.767-3.245.32-.26.67-.52.99-.747l.51-.357.511-.357c.351-.227.703-.454 1.086-.649.35-.227.798-.422 1.276-.584.256-.065.511-.13.798-.13.288 0 .607.032.926.162.32.13.607.357.798.617.224.26.351.584.415.844.128.584.096 1.07.032 1.558-.064.454-.191.876-.287 1.298-.447 1.655-1.054 3.18-1.724 4.738-.351.779-.702 1.525-1.181 2.304l-1.34 2.045c-.895 1.363-1.82 2.726-2.746 4.09-.926 1.362-1.915 2.693-2.969 3.959-.51.649-1.085 1.265-1.628 1.882-.574.617-1.149 1.2-1.755 1.785-1.213 1.136-2.458 2.24-3.83 3.213-.32.26-.671.487-1.022.714-.352.227-.67.454-1.054.681-.35.228-.702.422-1.053.65-.383.227-.766.389-1.15.584-.414.194-.861.39-1.34.551-.224.098-.479.163-.702.228L52.78 55c-.128-.032-.256 0-.415 0z"/>
        <path fill="#FFF" d="M57.933 59.986c-.033 0-.066.032-.131 0-.461-.065-1.153-.455-.593-1.429 0-.032.066-.097.099-.097.856-.357 1.712-.65 2.502-1.071.428-.228.889-.422 1.317-.65l1.284-.714c.197-.13.428-.227.625-.357l.626-.39c.395-.26.823-.519 1.218-.811 1.58-1.136 3.029-2.435 4.379-3.863 1.35-1.429 2.535-2.954 3.654-4.577l.823-1.234.757-1.266.132-.227c.033-.065.066-.13.099-.163l.197-.357.396-.714s.362-.52.823-1.233c.46-.715 1.053-1.624 1.58-2.37 1.646-2.565 1.449-1.331.823.454.066-.065-.362.974-.823 2.013-.23.52-.494 1.071-.659 1.46l-.329.65-.395.714c-.066.13-.132.227-.197.357l-.33.552c-.493.844-1.053 1.688-1.613 2.532-1.152 1.656-2.403 3.214-3.786 4.675-1.416 1.46-2.93 2.792-4.576 3.96-.428.293-.856.552-1.251.844l-.626.422c-.23.13-.428.26-.658.39l-1.317.747c-.461.227-.922.454-1.35.681-.922.39-1.844.714-2.7 1.072z"/>
        <path fill="#202020" d="M101.015 63.701s-.033 0 0-.065c0-.164.033-.458.165-.753.133-.294.364-.654.861-.85.033 0 .1-.033.133-.033 0 0 .066.033.132.098.066.066.166.131.265.196.232.164.53.426.894.72.695.589 1.59 1.407 2.417 2.225 1.722 1.635 3.344 3.304 3.344 3.304s.927 1.243 1.39 2.224c.894 1.636.067 1.374-.86.752.033.066-.497-.36-1.027-.785-.53-.425-1.092-.85-1.092-.85s-.398-.393-.994-1.014c-.596-.622-1.423-1.407-2.251-2.192-.828-.785-1.656-1.57-2.318-2.094-.33-.261-.596-.49-.794-.621-.1-.066-.166-.131-.232-.164 0-.098-.033-.098-.033-.098z"/>
        <path fill="#202020" d="M108.13 71.034s0-.034.064-.034c.161 0 .42 0 .742.103s.677.274 1 .65c0 0 .064.07.064.104 0 0-.064.137-.129.342-.097.206-.226.48-.42.823-.354.651-.902 1.474-1.515 2.193-.645.72-1.354 1.371-1.935 1.782-.58.411-1 .651-1 .651s-.064.035-.193.069-.29.068-.516.137c-.419.103-.935.171-1.354.137-.71 0-.968-.206-.935-.411.032-.24.29-.48.612-.72-.032 0 .355-.24.742-.514.194-.137.387-.308.516-.411.129-.103.226-.206.226-.206s.096-.034.225-.137c.13-.103.355-.205.58-.411.485-.343 1.065-.857 1.581-1.44.516-.582.967-1.267 1.225-1.781.13-.275.258-.514.323-.652.064-.17.097-.24.097-.274zM100.08 61.413c.032-.034.032-.067.098-.1.423-.302 1.334-.738 1.79.635 0 .034.032.134.032.201-.39 1.106-.846 2.21-1.367 3.283-.683 1.44-1.497 2.846-2.376 4.186-.162.268-.358.536-.553.804l-.586.804s-.13.167-.358.402c-.227.268-.553.603-.943.971-.781.77-1.823 1.641-2.734 2.31-.39.269-.716.503-.976.67-.26.168-.489.269-.651.336-.326.134-.456.1-.456-.034.033-.301.65-1.005 1.4-1.875-.098.067.813-.938 1.66-2.01.422-.536.845-1.105 1.138-1.54.293-.436.488-.737.488-.737.326-.436.619-.838.912-1.307.846-1.239 1.594-2.545 2.245-3.918.456-1.005.846-2.01 1.237-3.081z"/>
        <path fill="#202020" d="M93.398 71.115c.034-.031.034-.063.134-.063.532-.125 1.531-.125 1.465 1.193 0 .031-.033.125-.033.157-.766.816-1.566 1.6-2.332 2.385-2.464 2.448-4.995 4.802-7.626 7.061l-1.432 1.224s-.633.47-1.498 1.067c-.866.596-1.965 1.318-2.931 1.883-3.197 1.915-2.298.69-.666-.879-.1.063.899-.847 1.898-1.788l2.032-1.915 1.198-1.035c2.598-2.229 5.096-4.551 7.527-6.968.732-.721 1.498-1.537 2.264-2.322zM102.635 78.044c.032-.033.065-.033.13-.033.525-.066 1.474.133 1.18 1.462 0 .033-.033.132-.066.166-.851.697-1.735 1.395-2.62 2.06-3.438 2.69-6.974 5.314-10.674 7.705l-1.572.997s-.164.1-.458.232c-.295.133-.688.365-1.146.565-.95.432-2.129.963-3.176 1.295-.852.332-1.441.432-1.801.498-.36.034-.459-.033-.426-.133.033-.132.262-.332.59-.564.163-.133.36-.233.556-.366.196-.132.426-.298.655-.431-.066 0 .196-.133.622-.399.393-.266.982-.598 1.539-.996.557-.366 1.146-.764 1.539-1.063.426-.3.72-.499.72-.499l1.31-.83c3.602-2.358 7.106-4.949 10.51-7.606.852-.698 1.736-1.395 2.588-2.06z"/>
        <path fill="#202020" d="M86.96 75.063c.033-.031.065-.031.098-.063h.032l1.235.19v.063c.097.507 0 1.457-1.365 1.267 0 0-.032 0-.065-.032l1.203.19c-.033 0-.033 0-.065.095-.033.095-.033.253-.033.443s.065.412.13.602c0 .063.032.095.065.158l.065.19.13.38.26.633c.227.539.487 1.045.747 1.584 0 0 .293.664.747 1.52.455.854 1.105 1.93 1.69 2.786.52.728.877 1.203 1.04 1.488.162.316.162.443.032.443-.26 0-1.104-.475-1.95-1.266.066.094-.941-.855-1.819-1.964-.91-1.108-1.624-2.374-1.624-2.374-.26-.475-.488-.982-.715-1.488l-.293-.697-.162-.412-.065-.19c-.033-.063-.065-.158-.065-.221-.097-.317-.162-.633-.195-.982-.032-.348-.032-.728.098-1.171.065-.222.162-.443.324-.633.098-.222.293-.412.52-.539z"/>
        <path fill="#202020" d="M86.877 74.169c.065.034.098.034.163.101.131.135.262.304.295.506.065.203.065.372 0 .54-.065.17-.196.304-.393.406-.163.1-.392.236-.589.37 0 0-.065.068-.098.068-.229-.1-.589-.067-.949.102-.327.135-.654.405-.85.708-.164.237-.295.574-.36.946-.066.37-.066.742-.033 1.147.065.81.327 1.654.654 2.532.23.574.458 1.148.72 1.688 0 0 .262.709.72 1.654.458.945 1.08 2.059 1.669 3.004.523.776.85 1.283 1.047 1.586.163.338.163.473.033.473-.262 0-1.113-.506-1.964-1.35.066.101-.949-.912-1.832-2.127-.426-.607-.85-1.249-1.145-1.721-.295-.507-.458-.844-.458-.844-.262-.54-.459-1.08-.688-1.62-.36-.946-.654-1.958-.785-3.072-.065-.574-.033-1.148.065-1.755.099-.608.295-1.182.688-1.756.229-.337.49-.607.785-.844.294-.236.622-.438.949-.607.327-.169.72-.27 1.112-.304.393 0 .818.034 1.244.169z"/>
        <path fill="#202020" d="M81.052 77c.064 0 .097 0 .193.033.16.066.353.198.482.33.128.166.193.331.16.496 0 .166-.096.331-.224.496-.065.1-.129.166-.193.265l-.193.297c0 .033-.032.066-.064.066-.225.033-.546.166-.771.463-.129.132-.225.298-.29.463-.032.066-.064.165-.096.231s-.032.166-.032.265c-.129.925.321 2.016.932 3.074.289.529.61 1.025.964 1.488 0 0 .096.165.257.43.16.264.417.627.706.991.29.397.643.793 1.029 1.19.385.397.835.76 1.22 1.058.707.463 1.254.727 1.543.892.289.166.385.298.289.364-.097.066-.418.132-.835.1-.418-.034-.964-.133-1.543-.364.065.033-.257-.1-.739-.331-.482-.264-1.092-.661-1.67-1.157-.579-.496-1.093-1.025-1.446-1.454-.354-.43-.61-.728-.61-.728-.322-.462-.611-.958-.9-1.454-.354-.595-.675-1.223-.9-1.95-.257-.728-.385-1.521-.289-2.38.032-.166.064-.397.096-.596.065-.198.129-.363.193-.562.16-.363.386-.66.643-.958.514-.496 1.22-.959 2.088-1.058zM77.047 82.035c.088-.035.117-.035.235-.035.235 0 .44.105.587.279.147.174.206.383.206.557 0 .175-.088.349-.176.523-.059.07-.088.174-.147.279-.03.105-.088.21-.03.348v-.034V84.056c-.029 0-.146.105-.235.244-.058.07-.088.105-.117.21-.059.104-.088.208-.147.313-.176.418-.294.906-.323 1.394-.03.314-.03.592-.03.906.03.558.147 1.08.324 1.568 0 0 0 .035.029.105.03.07.059.174.118.313.088.244.264.593.499.976.235.349.588.732.97 1.046.382.313.852.557 1.263.697.735.244 1.264.244 1.557.279.324.034.412.104.353.244-.059.139-.294.313-.676.453-.382.139-.91.244-1.469.174.059.035-.264 0-.764-.14-.5-.139-1.175-.418-1.763-.906-.617-.453-1.146-1.15-1.44-1.707-.176-.28-.264-.523-.352-.697-.059-.175-.118-.28-.118-.28-.205-.626-.323-1.323-.382-1.986-.03-.453-.03-.87.03-1.324.058-.697.235-1.394.5-2.056.058-.174.146-.314.205-.488.088-.174.206-.348.294-.523.294-.313.558-.627.999-.836zM138.065 94.705c-.032-.033-.065-.067-.065-.1 0-.034.033-.068.033-.135 0-.033.032-.1.032-.168 0-.134-.032-.268-.032-.369-.033-.168 0-.302.098-.57.098-.236.425-.437.98-.336 0 0 .066.033.099.033s.065 0 .098.034c.883.705 1.733 1.41 2.648 2.048.262.201.556.402.818.57.49.336 1.013.638 1.537.94 0 0 .62.403 1.504.907.883.47 2.027.973 3.04 1.309.85.235 1.44.37 1.766.47.327.1.425.201.36.302-.196.202-1.177.437-2.387.336.065.033-.262 0-.785-.067s-1.242-.235-1.929-.437c-.72-.201-1.406-.47-1.93-.705-.522-.235-.85-.403-.85-.403-.49-.268-.98-.57-1.438-.906l-.883-.604c-.915-.705-1.83-1.41-2.714-2.149z"/>
        <path fill="#202020" d="M137.708 93.042c0-.031.035-.031.07-.031.208-.031.486 0 .799.156.312.156.625.437.938.78l.034.062c0 .032-.208.281-.347.812-.139.499-.104 1.248.174 1.965.139.344.312.687.52.999.21.312.453.593.661.811.417.468.764.75.764.75s.174.218.417.53c.244.312.591.717.834 1.092.938 1.185.174 1.185-.764.811.035.031-.487-.218-1.008-.5-.52-.28-1.042-.623-1.042-.623s-.104-.094-.243-.25c-.174-.156-.382-.374-.66-.655-.244-.281-.556-.624-.834-1.03-.278-.406-.522-.905-.695-1.404-.348-.999-.417-2.09-.209-2.933.105-.406.243-.75.348-.999.139-.187.208-.312.243-.343zM72.985 17.974c0 .032.034.065 0 .13-.138.526-.69 1.346-1.898.591-.034 0-.103-.098-.138-.13l-1.035-3.248-.965-2.986-.587-1.804s-.759-3.018-1.104-5.215c-.724-3.641.207-2.395 1.173-.263-.034-.23 2.07 5.117 2.07 5.117l.517 1.542.966 2.985 1 3.28zM58.965 19.63c.032.033.032.066.032.131.032.522-.16 1.5-1.471 1.174-.032 0-.128-.033-.16-.065l-2.014-2.674-7.579-10.108-1.119-1.5s-1.663-2.576-2.718-4.467c-1.854-3.163-.64-2.283.928-.62-.096-.228 3.549 4.076 3.549 4.076l.96 1.272 7.577 10.108 2.015 2.674zM46.604 30.885c.032.036.064.036.095.108.318.466.667 1.47-.57 1.971-.033 0-.128.036-.16.036l-3.11-1.183-.603-.25-1.713-.682s-2.761-1.326-4.666-2.401c-3.237-1.757-1.745-1.685.413-1.148-.19-.143 5.141 1.542 5.141 1.542l1.492.573.603.215 3.078 1.22zM44.243 47c.066 0 .066 0 .132.063.462.286 1.122.985.033 1.842-.033 0-.1.063-.165.095h-7.659s-3.136-.19-5.315-.476c-3.73-.413-2.245-.857.066-1.08-.231-.031 5.513-.38 5.513-.38H40.809L44.243 47zM152 98.997v-.065c0-.131.034-.393.068-.753.034-.328.102-.72.443-1.114 0 0 .068-.065.102-.065 0 0 .136.033.375.131.204.098.51.262.783.491.579.491 1.022 1.244 1.158 2.096.068.392.102.85.034 1.244-.068.36-.136.687-.239.982-.204.524-.374.851-.374.851s-.17.197-.409.393c-.238.23-.545.459-.851.59-.954.556-1.09-.033-.954-.655-.034 0 .102-.328.205-.655.102-.328.17-.655.17-.655s.034-.065.068-.164c.034-.098.102-.262.17-.425.068-.164.102-.36.136-.59.035-.196.035-.393-.034-.589-.068-.426-.306-.753-.51-.917-.205-.13-.341-.13-.341-.13zM132.778 122.234c.032-.033.032-.067.129-.1.256-.135.641-.202.93-.034.29.134.514.538.578 1.178 0 .033 0 .134-.032.168-.546.807-.963 1.783-1.155 2.793-.193.808-.257 1.682-.193 2.557.032.875.16 1.717.385 2.558.225.841.546 1.649.93 2.423.386.774.867 1.48 1.413 2.12 1.123 1.312 2.47 2.423 3.98 3.23 1.507.808 3.144 1.38 4.845 1.65 1.7.302 3.434.302 5.102.033 1.669-.27 3.338-.774 4.91-1.548 1.573-.74 3.049-1.716 4.397-2.86.032-.034.096-.068.128-.101l.096-.101.097-.068.192-.168.353-.303c.225-.202.45-.437.706-.673l.096-.1c.065-.068.16-.135.29-.236.224-.202.577-.505.93-.842.738-.673 1.636-1.648 2.375-2.422.288-.337.545-.64.77-.875.192-.236.385-.404.513-.539.257-.235.417-.269.45-.134.064.269-.29 1.211-.867 2.254.096-.1-.642 1.144-1.508 2.322-.867 1.178-1.894 2.255-1.894 2.255-.256.235-.481.47-.738.706l-.385.337-.096.067-.096.068c-.032.033-.097.067-.129.1l-.545.438c-1.476 1.178-3.081 2.154-4.814 2.928-1.7.774-3.53 1.312-5.423 1.548-1.862.235-3.755.168-5.616-.202-1.861-.337-3.659-.976-5.327-1.918-1.67-.943-3.177-2.188-4.429-3.736-.642-.774-1.187-1.615-1.604-2.49-.225-.437-.418-.908-.61-1.38-.16-.47-.321-.942-.45-1.447-.128-.47-.224-.975-.32-1.48-.065-.505-.129-1.01-.129-1.515-.032-.504 0-1.01.032-1.514.032-.27.065-.505.097-.774s.096-.505.128-.774c.289-1.11.802-2.322 1.508-3.399z"/>
        <path fill="#FFF" d="M22 154.8c0-.066 0-.066.07-.132.351-.499 1.193-1.197 2.21-.033.036.033.07.132.106.166 0 1.23 0 2.426.035 3.656.105 5.518.491 11.036.772 16.554L26 189.737s-.035 3.39-.28 5.784c-.281 4.056-.878 2.46-1.299 0-.035.266-.772-5.917-.772-5.917l-.807-14.692c-.28-5.452-.667-10.87-.772-16.355-.07-1.296-.07-2.526-.07-3.756z"/>
        <path fill="#202020" d="M23.108 156.35c0 .033 0 .067-.064.1-.191.199-.447.43-.798.53-.352.066-.799 0-1.182-.696 0-.033-.064-.166-.064-.199.16-1.425.703-2.684 1.31-3.844.67-1.292 1.47-2.386 2.204-3.513.735-1.127 1.501-2.253 2.268-3.38l4.6-6.661 1.15-1.657s2.077-2.585 3.61-4.342c2.556-3.048 2.076-1.458.926.763.096-.1-.638 1.193-1.405 2.485-.767 1.293-1.565 2.618-1.565 2.618l-.99 1.425c-1.534 2.22-3.067 4.408-4.6 6.628-.768 1.094-1.502 2.22-2.237 3.347-.735 1.127-1.501 2.22-2.076 3.347-.575 1.028-.959 2.055-1.087 3.05z"/>
        <path fill="#202020" d="M37 131.82c0-.065 0-.065.03-.131.27-.493.962-1.216 1.835-.099.03.033.09.132.09.165l.12 3.582L41 190.027s-.09 3.286-.3 5.587c-.271 3.911-.783 2.367-1.083-.033-.03.263-.572-5.751-.572-5.751l-1.895-54.394-.15-3.616zM22.342 157.282c.066 0 .066 0 .131.05.46.279 1.02.96-.263 1.567-.033 0-.131.05-.164.05-1.15-.126-2.335-.202-3.518-.227-2.434-.076-4.867 0-7.333.126-.658.026-1.348.076-2.006.127 0 0-.822 0-1.973.025-1.118 0-2.564 0-3.748-.05-2.006-.051-2.63-.228-2.433-.405.197-.176 1.183-.353 2.4-.555-.132 0 1.315-.177 2.828-.354l3.025-.354 1.743-.1c2.499-.152 5.03-.228 7.562-.152 1.283.05 2.532.1 3.749.252z"/>
        <path fill="#202020" d="M.83 158.213c.063-.064.095-.097.22-.13.22-.096.472-.096.66-.064.221.065.347.194.441.323.063.162.094.356.063.55-.031.226-.063.452.063.678 0 .032.031.065.031.065-.031.032-.094.129-.125.323-.032.161-.063.387-.095.614 0 .226 0 .452.032.743l.063.872c.345 4.943.597 9.886.723 14.829.063 2.487.094 4.942.094 7.43 0 1.228 0 2.488-.031 3.715l-.032 2.133s-.063.807-.189 1.873c-.125 1.066-.283 2.423-.471 3.554-.566 3.78-.975 2.23-1.132-.13-.032.13-.063-1.291-.126-2.713-.063-1.421-.126-2.908-.126-2.908l.032-2.293v-3.619c0-2.423-.032-4.846-.094-7.236-.126-4.846-.346-9.66-.724-14.474l-.063-.872c-.031-.258-.062-.646-.031-.97 0-.354.063-.71.157-1.097.126-.356.283-.808.66-1.196z"/>
        <path fill="#202020" d="M6.35 150.015s.03-.034.06 0c.33.034 1.08.307 1.56 1.26 0 .034.03.102.03.102-.06.103-4.35 6.71-4.35 6.71s-.87.92-1.59 1.465c-1.17.987-1.2.17-.9-.784-.09.068.93-2.145.93-2.145s4.2-6.506 4.26-6.608zM38.76 131.355l.035.048c.102.236.341.805.102 1.515 0 .024-.034.071-.034.071-.034 0-.376.024-.889 0-.513 0-1.162-.047-1.812-.118-1.264-.118-2.495-.284-2.495-.284s-.752-.284-1.23-.592c-.821-.474-.343-.758.273-.877-.034-.023.342-.047.718-.07l.752-.048s1.162.166 2.29.26c.581.048 1.128.095 1.572.095.41.024.718 0 .718 0z"/>
        <path fill="#202020" d="M23 118.048c0 .066 0 .066-.033.164-.228.523-.913 1.342-2.021.36-.033-.033-.098-.098-.098-.164l-.555-3.6-.163-1.146-.195-1.08-.033-.13-1.598 1.963c-1.924 2.455-3.88 4.91-5.87 7.299l-3 3.6-1.5 1.8-.651.786.032.425c.261 3.11.49 6.252.652 9.361l.13 2.455.066 1.996.065 1.768s-.032.85-.098 1.963c-.065 1.146-.195 2.553-.358 3.732-.457 3.96-.946 2.356-1.207-.066-.032.131-.13-1.342-.26-2.815l-.262-3.01-.065-1.604-.098-2.062-.13-2.226c-.163-3.11-.424-6.219-.652-9.328l-.065-.753-.033-.294v-.197c0-.033 0-.065.033-.065l.39-.459.849-1.014 1.5-1.8 2.967-3.6c1.99-2.39 3.913-4.812 5.837-7.267l1.435-1.832.587-.753.359-.458.358-.393.685-.818.359-.393.163-.197.098-.098.032-.065.033-.033v.033l.75 1.996c.13.36.228.688.326 1.08.065.197.098.36.13.557l.098.425c.098.393.163.818.228 1.211l.163 1.146.62 3.6z"/>
        <path fill="#202020" d="M27 124.067c0 .066 0 .066-.032.166-.227.532-.842 1.396-1.976.432-.032-.033-.097-.1-.13-.166-.226-1.23-.42-2.427-.614-3.657-.13-.765-.227-1.563-.324-2.328l-.194-1.729-1.231 1.53-1.36 1.662c-.907 1.097-1.846 2.195-2.752 3.292-1.846 2.194-3.692 4.355-5.537 6.517l-.68.83-.033.034V133.043c0 1.43.033 2.86.097 4.29l.097 2.128.098 1.63.13 1.695v1.961c0 1.131.031 2.56 0 3.758 0 2.028-.13 2.66-.357 2.46-.227-.166-.55-1.164-.842-2.394 0 .133-.291-1.33-.518-2.86-.26-1.529-.453-3.058-.453-3.058l-.13-1.696-.097-1.995-.097-2.128c-.033-1.43-.065-2.86-.065-4.256v-2.726c0-.033.032-.066.065-.1l.324-.399.388-.465.68-.798c1.813-2.161 3.627-4.256 5.408-6.417.906-1.064 1.78-2.128 2.687-3.192l1.296-1.63.647-.797.745-.964 2.817-3.758.162-.232c.032-.034.065-.1.097-.1v.133l.065.598.097 1.197.227 2.361.194 1.762.13 1.164c.097.765.194 1.53.323 2.294.227 1.164.421 2.36.648 3.558z"/>
        <path fill="#202020" d="M20.433 148.197c0 .065 0 .065-.067.13-.303.487-1.111 1.2-2.087.065-.034-.033-.101-.13-.101-.163-.034-1.2-.067-2.37-.135-3.57-.134-3.246-.47-6.492-.74-9.77l-.202-2.468-.034-.616-.033-.552-.034-.292v-.26l.034-.032 1.413-1.137c1.313-1.038 2.659-2.077 3.972-3.116 1.312-1.038 2.625-2.045 3.904-3.116.639-.52 1.278-1.071 1.884-1.59l.64-.552c.303-.292.605-.585.942-.877l1.851-1.753.438-.422.1-.097v.519l-.033 1.526c0 .52-.034 1.006 0 1.396.034.422.067.811.135 1.233l.302 2.467.27 2.24s.202 3.311.134 5.648c.034 3.96-.673 2.467-1.245.065 0 .26-1.144-5.713-1.144-5.713l-.539-4.382-.673.584c-.64.552-1.279 1.071-1.918 1.59-1.28 1.04-2.592 2.078-3.87 3.084-1.313 1.007-2.592 2.013-3.87 3.052l-.237.194-.1.098.067.844.202 2.402c.269 3.181.606 6.427.74 9.673-.033 1.233 0 2.467.034 3.668zM197.15 187.978c-.032.03-.064.03-.13 0-.259-.029-.584-.145-.811-.377-.228-.233-.325-.581 0-1.162 0-.029.065-.116.13-.145 1.104-.436 2.209-.726 3.346-.987 2.664-.581 5.328-.871 7.992-1.075 2.664-.174 5.328-.232 7.993-.232 2.664 0 5.328.087 7.992.232 1.332.087 2.664.145 3.963.262l2.08.174s.78.116 1.787.29c1.04.174 2.306.436 3.378.697 3.574.813 2.047 1.017-.194.987.13.03-1.235-.029-2.632-.087-1.365-.058-2.794-.087-2.794-.087l-.975-.087-1.3-.087c-1.299-.087-2.566-.174-3.865-.232-2.567-.145-5.166-.204-7.733-.204-2.566 0-5.166.059-7.7.233-2.566.174-5.1.464-7.537 1.016-1.007.232-2.047.523-2.99.871z"/>
    </g>
</svg>
