<?xml version="1.0" encoding="UTF-8"?>
<svg width="32px" height="32px" viewBox="0 0 32 32" version="1.1" xmlns="http://www.w3.org/2000/svg" xmlns:xlink="http://www.w3.org/1999/xlink">
    <!-- Generator: Sketch 60 (88103) - https://sketch.com -->
    <title>Group</title>
    <desc>Created with Sketch.</desc>
    <defs>
        <circle id="path-1" cx="16" cy="16" r="16"></circle>
    </defs>
    <g id="Page-1" stroke="none" stroke-width="1" fill="none" fill-rule="evenodd">
        <g id="Group">
            <mask id="mask-2" fill="white">
                <use xlink:href="#path-1"></use>
            </mask>
            <use id="Mask-2" fill="#D763D7" xlink:href="#path-1"></use>
            <path d="M19.1586048,22.9564171 C19.7230522,22.8653772 20.2237716,22.6317081 20.6607632,22.2554098 C21.085616,21.9033889 21.3890824,21.4755013 21.5711622,20.9717472 C21.753242,20.4679931 21.8109006,19.9490656 21.744138,19.4149649 C21.6773754,18.8808641 21.4861916,18.3953179 21.1705866,17.9583264 C21.6561328,17.7155533 22.0567083,17.3817404 22.3723133,16.9568875 C22.6879183,16.5320346 22.8851714,16.0586271 22.9640727,15.536665 C23.0429739,15.0147029 22.98835,14.5048794 22.8002009,14.0071946 C22.6120517,13.5095098 22.3267934,13.093761 21.9444258,12.759948 C21.5620582,12.426135 21.1281013,12.1955006 20.6425552,12.0680447 C20.157009,11.9405889 19.6653936,11.9254155 19.1677088,12.0225248 C19.1312928,11.4762854 18.9704556,10.9694966 18.6851973,10.5021584 C18.3999389,10.0348202 18.020606,9.66762595 17.5471985,9.40057557 C17.073791,9.13352519 16.5578982,9 15.9995201,9 C15.4411421,9 14.9252493,9.13352519 14.4518418,9.40057557 C13.9784343,9.66762595 13.5991014,10.0348202 13.313843,10.5021584 C13.0285847,10.9694966 12.8677475,11.4762854 12.8313315,12.0225248 C12.3336467,11.9254155 11.8420313,11.9405889 11.3564851,12.0680447 C10.870939,12.1955006 10.4369821,12.426135 10.0546145,12.759948 C9.67224692,13.093761 9.38698856,13.5064752 9.19883942,13.9980907 C9.01069029,14.4897061 8.95606635,14.9964949 9.0349676,15.518457 C9.11386885,16.0404191 9.30808731,16.5138266 9.61762298,16.9386795 C9.92715864,17.3635324 10.3186302,17.6973454 10.7920377,17.9401184 C10.4764327,18.37711 10.2852489,18.8626561 10.2184863,19.3967569 C10.1517237,19.9308576 10.212417,20.4497851 10.4005661,20.9535392 C10.5887153,21.4572933 10.8952163,21.8851809 11.3200692,22.2372018 C11.7570607,22.6135001 12.2577802,22.8471692 12.8222275,22.9382091 C13.3866749,23.029249 13.935949,22.9776597 14.4700498,22.7834413 C15.0041505,22.5892228 15.4593501,22.2736178 15.8356483,21.8366263 C15.8599256,21.8002103 15.8902723,21.7455864 15.9266882,21.6727544 L15.9813122,21.5452986 L16.0359361,21.6727544 C16.0723521,21.757725 16.108768,21.8184183 16.145184,21.8548342 C16.5214823,22.2918258 16.9766818,22.6074308 17.5107825,22.8016492 C18.0448833,22.9958677 18.5941574,23.047457 19.1586048,22.9564171 Z M16.1998079,15.1360894 C16.4547197,14.2985223 16.5821755,13.8038722 16.5821755,13.652139 C16.5821755,13.5004059 16.5245169,13.3668807 16.4091997,13.2515635 C16.2938825,13.1362462 16.1573226,13.0785876 15.9995201,13.0785876 C15.8417176,13.0785876 15.7051578,13.1362462 15.5898406,13.2515635 C15.4745234,13.3668807 15.4168648,13.4973712 15.4168648,13.643035 C15.4168648,13.7886989 15.5200433,14.2681757 15.7264004,15.0814655 L14.0330583,12.5323482 C13.9845036,12.3624071 13.9602263,12.2531592 13.9602263,12.2046046 C13.9602263,11.8283063 14.0512662,11.4853893 14.233346,11.1758537 C14.4154258,10.866318 14.6612336,10.6205103 14.9707692,10.4384305 C15.2803049,10.2563507 15.6232219,10.1653108 15.9995201,10.1653108 C16.3758184,10.1653108 16.7187354,10.2563507 17.028271,10.4384305 C17.3378067,10.6205103 17.5836145,10.866318 17.7656943,11.1758537 C17.9477741,11.4853893 18.038814,11.8283063 18.038814,12.2046046 C18.038814,12.3017138 18.002398,12.453447 17.9295661,12.6598041 L16.1998079,15.1360894 Z M11.6660208,17.0843434 C11.6174662,17.0722047 11.5628422,17.0539967 11.502149,17.0297194 L11.483941,17.0297194 C11.13192,16.8961942 10.843627,16.6898371 10.6190619,16.4106481 C10.3944968,16.131459 10.2518676,15.8128194 10.1911744,15.4547291 C10.1304811,15.0966388 10.1668971,14.7415832 10.3004222,14.3895622 C10.4460861,14.0011253 10.6888592,13.688555 11.0287415,13.4518512 C11.3686238,13.2151475 11.7388527,13.0907263 12.1394283,13.0785876 C12.4186173,13.066449 12.6856677,13.1089343 12.9405794,13.2060435 C12.9648567,13.2181822 13.0134113,13.2485288 13.0862433,13.2970834 L13.1590752,13.3517073 L13.1772832,13.3517073 L14.7977934,15.8097847 C14.1058902,15.3363772 13.6871066,15.0723615 13.5414428,15.0177376 C13.3957789,14.9631136 13.2470804,14.9722176 13.0953473,15.0450495 C12.9436141,15.1178815 12.8404355,15.2271293 12.7858116,15.3727932 C12.7311876,15.518457 12.7402916,15.6671555 12.8131236,15.8188887 C12.8859555,15.9706219 12.9921687,16.0707658 13.1317632,16.1193204 C13.2713577,16.167875 13.7660079,16.2164296 14.6157136,16.2649842 L11.6660208,17.0843434 Z M20.1327317,17.1025513 L17.2922868,16.2649842 C18.2026858,16.2164296 18.7276826,16.167875 18.8672771,16.1193204 C19.0068716,16.0707658 19.1130848,15.9706219 19.1859167,15.8188887 C19.2587487,15.6671555 19.2678527,15.518457 19.2132287,15.3727932 C19.1586048,15.2271293 19.0554262,15.1178815 18.903693,15.0450495 C18.7519599,14.9722176 18.6002267,14.9661483 18.4484935,15.0268416 C18.2967604,15.0875348 17.8506648,15.3667239 17.110207,15.8644087 L18.8763811,13.3152914 C18.9613516,13.2545981 19.0220449,13.2181822 19.0584609,13.2060435 C19.3133726,13.1089343 19.580423,13.066449 19.859612,13.0785876 C20.2601876,13.0907263 20.6304165,13.2151475 20.9702988,13.4518512 C21.3101811,13.688555 21.5529542,14.0011253 21.6986181,14.3895622 C21.8321432,14.7415832 21.8685592,15.0966388 21.8078659,15.4547291 C21.7471727,15.8128194 21.6045435,16.131459 21.3799784,16.4106481 C21.1554133,16.6898371 20.8671203,16.8961942 20.5150993,17.0297194 C20.4179901,17.0661354 20.2905342,17.0904127 20.1327317,17.1025513 Z M13.0225153,21.8002103 C12.664425,21.739517 12.3457854,21.5877839 12.0665964,21.3450108 C11.7874073,21.1022377 11.5840849,20.81091 11.456629,20.4710277 C11.3291731,20.1311454 11.2957918,19.7821591 11.3564851,19.4240688 C11.4171784,19.0659786 11.5689116,18.7473389 11.8116846,18.4681499 C11.8845166,18.3831793 12.0119724,18.2860701 12.1940522,18.1768222 L12.2668841,18.1404062 L15.0162892,17.375671 C14.251554,17.9097718 13.8175971,18.2344808 13.7144186,18.349798 C13.61124,18.4651152 13.5687547,18.6047097 13.5869627,18.7685815 C13.6051707,18.9324534 13.674968,19.0690132 13.7963545,19.1782611 C13.917741,19.287509 14.0573356,19.3330289 14.2151381,19.314821 C14.3729406,19.296613 14.5064657,19.2237811 14.6157136,19.0963252 C14.7249615,18.9688693 14.9920119,18.4195953 15.4168648,17.448503 L15.4168648,19.5970447 C15.3683102,19.936927 15.2985129,20.2464626 15.207473,20.5256517 C15.1164331,20.8048407 15.0284279,20.9929898 14.9434573,21.0900991 C14.7006842,21.3692881 14.4093565,21.5726105 14.0694742,21.7000664 C13.7295919,21.8275223 13.3806056,21.8609036 13.0225153,21.8002103 Z M17.9113581,21.7182744 C17.5714758,21.5908185 17.2801481,21.3874961 17.037375,21.108307 C16.9645431,21.0233365 16.8826072,20.847326 16.7915673,20.5802756 C16.7005274,20.3132252 16.6307301,20.0218975 16.5821755,19.7062925 L16.5821755,17.448503 C17.0070284,18.4195953 17.2740788,18.9688693 17.3833267,19.0963252 C17.4925746,19.2237811 17.6260997,19.296613 17.7839022,19.314821 C17.9417047,19.3330289 18.0812993,19.287509 18.2026858,19.1782611 C18.3240723,19.0690132 18.3938696,18.9324534 18.4120776,18.7685815 C18.4302855,18.6047097 18.3878003,18.4651152 18.2846217,18.349798 C18.1814431,18.2344808 17.7656943,17.9219105 17.037375,17.412087 L19.8231961,18.2132381 C19.9931372,18.322486 20.1084544,18.4135259 20.1691477,18.4863579 C20.4119208,18.7655469 20.5636539,19.0841865 20.6243472,19.4422768 C20.6850405,19.8003671 20.6516592,20.1493534 20.5242033,20.4892357 C20.3967474,20.829118 20.193425,21.1204457 19.914236,21.3632188 C19.6350469,21.6059918 19.3164073,21.757725 18.958317,21.8184183 C18.6002267,21.8791116 18.2512404,21.8457303 17.9113581,21.7182744 Z" id="" fill="#FFFFFF" fill-rule="nonzero" mask="url(#mask-2)"></path>
        </g>
    </g>
</svg>