<?xml version="1.0" encoding="UTF-8"?>
<svg width="32px" height="32px" viewBox="0 0 32 32" version="1.1" xmlns="http://www.w3.org/2000/svg" xmlns:xlink="http://www.w3.org/1999/xlink">
    <!-- Generator: Sketch 60 (88103) - https://sketch.com -->
    <title>Group Copy 2</title>
    <desc>Created with Sketch.</desc>
    <defs>
        <circle id="path-1" cx="16" cy="16" r="16"></circle>
    </defs>
    <g id="Page-1" stroke="none" stroke-width="1" fill="none" fill-rule="evenodd">
        <g id="Group-Copy-2">
            <mask id="mask-2" fill="white">
                <use xlink:href="#path-1"></use>
            </mask>
            <use id="Mask-2" fill="#78CC58" xlink:href="#path-1"></use>
            <path d="M23,23 L23,9 L9,9 L9,23 L23,23 Z M11.3333333,21.8333333 L10.1666667,21.8333333 L10.1666667,10.1666667 L11.3333333,10.1666667 L11.3333333,10.75 L12.5,10.75 L12.5,10.1666667 L19.5,10.1666667 L19.5,10.75 L20.6666667,10.75 L20.6666667,10.1666667 L21.8333333,10.1666667 L21.8333333,21.8333333 L20.6666667,21.8333333 L20.6666667,21.25 L19.5,21.25 L19.5,21.8333333 L12.5,21.8333333 L12.5,21.25 L11.3333333,21.25 L11.3333333,21.8333333 Z M12.5,13.0833333 L12.5,11.9166667 L11.3333333,11.9166667 L11.3333333,13.0833333 L12.5,13.0833333 Z M20.6666667,13.0833333 L20.6666667,11.9166667 L19.5,11.9166667 L19.5,13.0833333 L20.6666667,13.0833333 Z M12.5,15.4166667 L12.5,14.25 L11.3333333,14.25 L11.3333333,15.4166667 L12.5,15.4166667 Z M20.6666667,15.4166667 L20.6666667,14.25 L19.5,14.25 L19.5,15.4166667 L20.6666667,15.4166667 Z M12.5,17.75 L12.5,16.5833333 L11.3333333,16.5833333 L11.3333333,17.75 L12.5,17.75 Z M20.6666667,17.75 L20.6666667,16.5833333 L19.5,16.5833333 L19.5,17.75 L20.6666667,17.75 Z M12.5,20.0833333 L12.5,18.9166667 L11.3333333,18.9166667 L11.3333333,20.0833333 L12.5,20.0833333 Z M20.6666667,20.0833333 L20.6666667,18.9166667 L19.5,18.9166667 L19.5,20.0833333 L20.6666667,20.0833333 Z" id="" fill="#FFFFFF" fill-rule="nonzero" mask="url(#mask-2)"></path>
        </g>
    </g>
</svg>