<?xml version="1.0" encoding="UTF-8"?>
<svg width="32px" height="32px" viewBox="0 0 32 32" version="1.1" xmlns="http://www.w3.org/2000/svg" xmlns:xlink="http://www.w3.org/1999/xlink">
    <!-- Generator: Sketch 60 (88103) - https://sketch.com -->
    <title>Group</title>
    <desc>Created with Sketch.</desc>
    <defs>
        <circle id="path-1" cx="16" cy="16" r="16"></circle>
    </defs>
    <g id="Page-1" stroke="none" stroke-width="1" fill="none" fill-rule="evenodd">
        <g id="Group">
            <mask id="mask-2" fill="white">
                <use xlink:href="#path-1"></use>
            </mask>
            <use id="Mask-2" fill="#5B5FF9" xlink:href="#path-1"></use>
            <path d="M13.03375,23 C13.4945833,23 13.8883333,22.8366667 14.215,22.51 C14.4133333,22.3116667 14.5533333,22.0666667 14.635,21.775 C14.915,21.8333333 15.1920833,21.8245833 15.46625,21.74875 C15.7404167,21.6729167 15.9766667,21.5358333 16.175,21.3375 C16.5016667,21.0108333 16.665,20.6170833 16.665,20.15625 C16.665,19.6954167 16.5016667,19.3016667 16.175,18.975 L15.7025,18.5025 L18.5025,15.7025 L18.975,16.175 C19.3016667,16.5016667 19.6954167,16.665 20.15625,16.665 C20.6170833,16.665 21.0108333,16.5016667 21.3375,16.175 C21.5358333,15.9766667 21.6729167,15.7404167 21.74875,15.46625 C21.8245833,15.1920833 21.8333333,14.915 21.775,14.635 C22.0666667,14.5533333 22.3116667,14.4133333 22.51,14.215 C22.8366667,13.8883333 23,13.4945833 23,13.03375 C23,12.5729167 22.8366667,12.1791667 22.51,11.8525 L21.74,11.065 L22.125,10.68 L21.32,9.875 L20.935,10.26 L20.1475,9.49 C19.8208333,9.16333333 19.43,9 18.975,9 C18.7533333,9 18.5404167,9.04083333 18.33625,9.1225 C18.1320833,9.20416667 17.9483333,9.32666667 17.785,9.49 C17.5866667,9.68833333 17.4466667,9.93916667 17.365,10.2425 L17.3125,10.225 C17.1841667,10.2016667 17.085,10.19 17.015,10.19 C16.5366667,10.19 16.1370833,10.3504167 15.81625,10.67125 C15.4954167,10.9920833 15.335,11.3829167 15.335,11.84375 C15.335,12.3045833 15.4983333,12.6983333 15.825,13.025 L16.2975,13.4975 L13.4975,16.2975 L13.025,15.825 C12.6983333,15.4983333 12.3075,15.335 11.8525,15.335 C11.6308333,15.335 11.4179167,15.3758333 11.21375,15.4575 C11.0095833,15.5391667 10.8258333,15.6616667 10.6625,15.825 C10.4525,16.035 10.3125,16.2770833 10.2425,16.55125 C10.1725,16.8254167 10.1666667,17.1025 10.225,17.3825 C9.92166667,17.4641667 9.67666667,17.5983333 9.49,17.785 C9.16333333,18.1116667 9,18.5054167 9,18.96625 C9,19.4270833 9.16333333,19.8208333 9.49,20.1475 L10.26,20.935 L9.875,21.32 L10.68,22.125 L11.065,21.74 L11.8525,22.51 C12.1791667,22.8366667 12.5729167,23 13.03375,23 Z M21.32875,13.5675 C21.17125,13.5675 21.04,13.515 20.935,13.41 L18.59,11.065 C18.485,10.96 18.4325,10.82875 18.4325,10.67125 C18.4325,10.51375 18.485,10.3825 18.59,10.2775 C18.695,10.1725 18.8233333,10.12 18.975,10.12 C19.1266667,10.12 19.255,10.1725 19.36,10.2775 L21.7225,12.64 C21.8275,12.745 21.88,12.8733333 21.88,13.025 C21.88,13.1766667 21.8275,13.305 21.7225,13.41 C21.6175,13.515 21.48625,13.5675 21.32875,13.5675 Z M20.15625,15.53625 C20.0104167,15.5304167 19.8791667,15.475 19.7625,15.37 L19.745,15.37 L16.6125,12.2375 C16.5075,12.1325 16.4579167,12.0070833 16.46375,11.86125 C16.4695833,11.7154167 16.5279167,11.5841667 16.63875,11.4675 C16.7495833,11.3508333 16.875,11.2925 17.015,11.2925 C17.155,11.2925 17.2833333,11.3508333 17.4,11.4675 L20.5325,14.6 C20.6375,14.705 20.69,14.83625 20.69,14.99375 C20.69,15.15125 20.6375,15.2825 20.5325,15.3875 C20.4275,15.4925 20.3020833,15.5420833 20.15625,15.53625 Z M14.915,17.715 L14.285,17.085 L17.085,14.285 L17.715,14.915 L14.915,17.715 Z M14.985,20.69 C14.8333333,20.69 14.705,20.6375 14.6,20.5325 L14.215,20.1475 L14.145,20.095 L11.4675,17.4 C11.3625,17.295 11.31,17.16375 11.31,17.00625 C11.31,16.84875 11.3625,16.7175 11.4675,16.6125 C11.5725,16.5075 11.7008333,16.455 11.8525,16.455 C11.9925,16.455 12.1208333,16.5133333 12.2375,16.63 L12.255,16.63 L15.3875,19.7625 C15.4925,19.8675 15.5420833,19.9929167 15.53625,20.13875 C15.5304167,20.2845833 15.475,20.4129167 15.37,20.52375 C15.265,20.6345833 15.1366667,20.69 14.985,20.69 Z M13.025,21.88 C12.8733333,21.88 12.745,21.8275 12.64,21.7225 L10.2775,19.36 C10.1725,19.255 10.12,19.1266667 10.12,18.975 C10.12,18.8233333 10.1754167,18.6920833 10.28625,18.58125 C10.3970833,18.4704167 10.5225,18.415 10.6625,18.415 C10.8141667,18.415 10.9483333,18.4733333 11.065,18.59 L13.41,20.935 C13.515,21.04 13.5675,21.17125 13.5675,21.32875 C13.5675,21.48625 13.515,21.6175 13.41,21.7225 C13.305,21.8275 13.1766667,21.88 13.025,21.88 Z" id="" fill="#FFFFFF" fill-rule="nonzero" mask="url(#mask-2)"></path>
        </g>
    </g>
</svg>