<?xml version="1.0" encoding="UTF-8"?>
<svg width="32px" height="32px" viewBox="0 0 32 32" version="1.1" xmlns="http://www.w3.org/2000/svg" xmlns:xlink="http://www.w3.org/1999/xlink">
    <!-- Generator: Sketch 60 (88103) - https://sketch.com -->
    <title>Group Copy 3</title>
    <desc>Created with Sketch.</desc>
    <defs>
        <circle id="path-1" cx="16" cy="16" r="16"></circle>
    </defs>
    <g id="Page-1" stroke="none" stroke-width="1" fill="none" fill-rule="evenodd">
        <g id="Group-Copy-3">
            <mask id="mask-2" fill="white">
                <use xlink:href="#path-1"></use>
            </mask>
            <use id="Mask-2" fill="#FFB44F" xlink:href="#path-1"></use>
            <path d="M19.64,23 L19.64,21.88 L17.4,21.88 L17.4,18.7125 L22.335,12.2025 L22.44,12.045 L22.44,11.24 L15.02,11.24 C14.845,10.5866667 14.4833333,10.05 13.935,9.63 C13.3866667,9.21 12.7683333,9 12.08,9 C11.52,9 11.00375,9.13708333 10.53125,9.41125 C10.05875,9.68541667 9.68541667,10.05875 9.41125,10.53125 C9.13708333,11.00375 9,11.52 9,12.08 C9,12.64 9.13708333,13.15625 9.41125,13.62875 C9.68541667,14.10125 10.05875,14.4745833 10.53125,14.74875 C11.00375,15.0229167 11.52,15.16 12.08,15.16 C12.5116667,15.16 12.9375,15.0608333 13.3575,14.8625 L16.28,18.7125 L16.28,21.88 L14.04,21.88 L14.04,23 L19.64,23 Z M12.08,14.04 C11.7183333,14.04 11.38875,13.9525 11.09125,13.7775 C10.79375,13.6025 10.5575,13.36625 10.3825,13.06875 C10.2075,12.77125 10.12,12.4416667 10.12,12.08 C10.12,11.7183333 10.2075,11.38875 10.3825,11.09125 C10.5575,10.79375 10.79375,10.5575 11.09125,10.3825 C11.38875,10.2075 11.7183333,10.12 12.08,10.12 C12.465,10.12 12.815,10.225 13.13,10.435 C13.445,10.645 13.6783333,10.9133333 13.83,11.24 L11.24,11.24 L11.24,12.045 L11.345,12.2025 L12.6575,13.935 C12.4591667,14.005 12.2666667,14.04 12.08,14.04 Z M16.84,17.5925 L12.885,12.36 L20.795,12.36 L19.955,13.48 L14.88,13.48 L15.72,14.6 L19.0975,14.6 L16.84,17.5925 Z" id="" fill="#FFFFFF" fill-rule="nonzero" mask="url(#mask-2)"></path>
        </g>
    </g>
</svg>