<?xml version="1.0" encoding="UTF-8"?>
<svg width="32px" height="32px" viewBox="0 0 32 32" version="1.1" xmlns="http://www.w3.org/2000/svg" xmlns:xlink="http://www.w3.org/1999/xlink">
    <!-- Generator: Sketch 60 (88103) - https://sketch.com -->
    <title>Group</title>
    <desc>Created with Sketch.</desc>
    <defs>
        <circle id="path-1" cx="16" cy="16" r="16"></circle>
    </defs>
    <g id="Page-1" stroke="none" stroke-width="1" fill="none" fill-rule="evenodd">
        <g id="Group">
            <mask id="mask-2" fill="white">
                <use xlink:href="#path-1"></use>
            </mask>
            <use id="Mask" fill="#F0626C" xlink:href="#path-1"></use>
            <path d="M13.6521739,23 L13.6521739,16.2472826 C14.3496377,16.1077899 14.9266304,15.7717391 15.3831522,15.2391304 C15.8523551,14.6811594 16.0869565,14.0217391 16.0869565,13.2608696 C16.0869565,12.817029 16.0172101,12.3605072 15.8777174,11.8913043 C15.7382246,11.4221014 15.5416667,10.9782609 15.2880435,10.5597826 C15.009058,10.1032609 14.6983696,9.74184783 14.3559783,9.47554348 C13.9375,9.15851449 13.5,9 13.0434783,9 C12.5869565,9 12.1494565,9.15851449 11.7309783,9.47554348 C11.388587,9.74184783 11.0778986,10.1032609 10.798913,10.5597826 C10.5452899,10.9782609 10.3487319,11.4221014 10.2092391,11.8913043 C10.0697464,12.3605072 10,12.817029 10,13.2608696 C10,14.0217391 10.2346014,14.6811594 10.7038043,15.2391304 C11.1603261,15.7717391 11.7373188,16.1077899 12.4347826,16.2472826 L12.4347826,23 L13.6521739,23 Z M20.3478261,23 L20.3478261,15.6005435 C20.8804348,15.4610507 21.3179348,15.1757246 21.6603261,14.7445652 C22.0027174,14.3134058 22.173913,13.8188406 22.173913,13.2608696 L22.173913,9 L20.9565217,9 L20.9565217,13.2608696 C20.9565217,13.6032609 20.839221,13.8917572 20.6046196,14.1263587 C20.3700181,14.3609601 20.0815217,14.4782609 19.7391304,14.4782609 C19.3967391,14.4782609 19.1082428,14.3609601 18.8736413,14.1263587 C18.6390399,13.8917572 18.5217391,13.6032609 18.5217391,13.2608696 L18.5217391,9 L17.3043478,9 L17.3043478,13.2608696 C17.3043478,13.8188406 17.4755435,14.3134058 17.8179348,14.7445652 C18.1603261,15.1757246 18.5978261,15.4610507 19.1304348,15.6005435 L19.1304348,23 L20.3478261,23 Z M19.7391304,13.8695652 C19.9039855,13.8695652 20.0466486,13.8093297 20.1671196,13.6888587 C20.2875906,13.5683877 20.3478261,13.4257246 20.3478261,13.2608696 L20.3478261,9 L19.1304348,9 L19.1304348,13.2608696 C19.1304348,13.4257246 19.1906703,13.5683877 19.3111413,13.6888587 C19.4316123,13.8093297 19.5742754,13.8695652 19.7391304,13.8695652 Z M13.0434783,15.0869565 C12.4855072,15.0869565 12.0416667,14.9316123 11.7119565,14.6209239 C11.3822464,14.3102355 11.2173913,13.8568841 11.2173913,13.2608696 C11.2173913,12.9565217 11.2744565,12.6109601 11.388587,12.2241848 C11.5027174,11.8374094 11.6548913,11.4918478 11.8451087,11.1875 C12.0353261,10.8831522 12.2382246,10.6453804 12.4538043,10.4741848 C12.6693841,10.3029891 12.865942,10.2173913 13.0434783,10.2173913 C13.2210145,10.2173913 13.4175725,10.3029891 13.6331522,10.4741848 C13.8487319,10.6453804 14.0516304,10.8831522 14.2418478,11.1875 C14.4320652,11.4918478 14.5842391,11.8374094 14.6983696,12.2241848 C14.8125,12.6109601 14.8695652,12.9565217 14.8695652,13.2608696 C14.8695652,13.8568841 14.7047101,14.3102355 14.375,14.6209239 C14.0452899,14.9316123 13.6014493,15.0869565 13.0434783,15.0869565 Z" id="" fill="#FFFFFF" fill-rule="nonzero" mask="url(#mask-2)"></path>
        </g>
    </g>
</svg>