<?xml version="1.0" encoding="UTF-8"?>
<svg width="32px" height="32px" viewBox="0 0 32 32" version="1.1" xmlns="http://www.w3.org/2000/svg" xmlns:xlink="http://www.w3.org/1999/xlink">
    <!-- Generator: Sketch 60 (88103) - https://sketch.com -->
    <title>Group Copy</title>
    <desc>Created with Sketch.</desc>
    <defs>
        <circle id="path-1" cx="16" cy="16" r="16"></circle>
    </defs>
    <g id="Page-1" stroke="none" stroke-width="1" fill="none" fill-rule="evenodd">
        <g id="Group-Copy">
            <mask id="mask-2" fill="white">
                <use xlink:href="#path-1"></use>
            </mask>
            <use id="Mask-2" fill="#846FCD" xlink:href="#path-1"></use>
            <path d="M21.9134615,23 L21.3413462,12.7355769 L21.3076923,12.2307692 L18.6490385,12.2307692 L18.6490385,11.6923077 C18.6490385,11.2099359 18.5284455,10.7612179 18.2872596,10.3461538 C18.0460737,9.93108974 17.7179487,9.60296474 17.3028846,9.36177885 C16.8878205,9.12059295 16.4391026,9 15.9567308,9 C15.474359,9 15.025641,9.12059295 14.6105769,9.36177885 C14.1955128,9.60296474 13.8673878,9.93108974 13.6262019,10.3461538 C13.385016,10.7612179 13.2644231,11.2099359 13.2644231,11.6923077 L13.2644231,12.2307692 L10.6057692,12.2307692 L10.5721154,12.7355769 L10,23 L21.9134615,23 Z M17.5721154,12.2307692 L14.3413462,12.2307692 L14.3413462,11.6923077 C14.3413462,11.2435897 14.4983974,10.8621795 14.8125,10.5480769 C15.1266026,10.2339744 15.5080128,10.0769231 15.9567308,10.0769231 C16.4054487,10.0769231 16.786859,10.2339744 17.1009615,10.5480769 C17.4150641,10.8621795 17.5721154,11.2435897 17.5721154,11.6923077 L17.5721154,12.2307692 Z M20.7692308,21.9230769 L11.1442308,21.9230769 L11.6153846,13.3076923 L13.2644231,13.3076923 L13.2644231,14.9230769 L14.3413462,14.9230769 L14.3413462,13.3076923 L17.5721154,13.3076923 L17.5721154,14.9230769 L18.6490385,14.9230769 L18.6490385,13.3076923 L20.2980769,13.3076923 L20.7692308,21.9230769 Z" id="ïŠ" fill="#FFFFFF" fill-rule="nonzero" mask="url(#mask-2)"></path>
        </g>
    </g>
</svg>