<?xml version="1.0" encoding="UTF-8"?>
<svg width="26px" height="20px" viewBox="0 0 26 20" version="1.1" xmlns="http://www.w3.org/2000/svg" xmlns:xlink="http://www.w3.org/1999/xlink">
    <!-- Generator: Sketch 60 (88103) - https://sketch.com -->
    <title>icon_Air_conditioner</title>
    <desc>Created with Sketch.</desc>
    <g id="City-Guide" stroke="none" stroke-width="1" fill="none" fill-rule="evenodd">
        <g id="03_Place-Detail-1" transform="translate(-820.000000, -571.000000)" fill="#5D5D5D" fill-rule="nonzero">
            <g id="detail" transform="translate(135.000000, 569.000000)">
                <g id="amenities">
                    <g id="1" transform="translate(119.000000, 0.000000)">
                        <g id="icon_Air_conditioner" transform="translate(566.000000, 2.000000)">
                            <path d="M4.24403183,11.8832891 C4.00965682,11.8832891 3.81962865,12.0733173 3.81962865,12.3076923 L3.81962865,13.0715352 C3.82584552,15.1881631 2.98532828,17.2192059 1.48541114,18.7122845 L0.976044456,19.2216512 C0.865799045,19.3281665 0.821452255,19.4860743 0.860411141,19.6344496 C0.899162812,19.7828249 1.01521056,19.8986655 1.16358589,19.9374171 C1.31196122,19.976376 1.4696618,19.9320292 1.57617708,19.8217838 L2.08554377,19.3124171 C3.74523374,17.6606018 4.67527353,15.4134201 4.66847246,13.0715352 L4.66847246,12.3076923 C4.66847246,12.0733173 4.47840684,11.8832891 4.24403183,11.8832891 Z" id="Path"></path>
                            <path d="M21.2201592,11.8832891 C20.9857841,11.8832891 20.7957229,12.0733173 20.7957229,12.3076923 L20.7957229,13.0715352 C20.7893319,15.4136273 21.7202006,17.660809 23.3807195,19.3124171 L23.8900862,19.8217838 C24.0566976,19.9825928 24.3213279,19.9803133 24.4850381,19.8166031 C24.6487483,19.6528929 24.6510279,19.3882626 24.4902188,19.2216512 L23.9808521,18.7122845 C22.4801061,17.2196204 21.6387599,15.1883703 21.6445623,13.0715352 L21.6445623,12.3076923 C21.6445623,12.0733173 21.4545342,11.8832891 21.2201592,11.8832891 L21.2201592,11.8832891 Z" id="Path"></path>
                            <path d="M6.66611406,19.8226127 C8.10904345,18.387558 8.91806202,16.4346403 8.91249567,14.3996602 L8.91249567,13.1564987 C8.91249567,12.9221237 8.72243867,12.7320955 8.48806366,12.7320955 C8.25368865,12.7320955 8.06366048,12.9221237 8.06366048,13.1564987 L8.06366048,14.3996602 C8.06863395,16.2095905 7.34934515,17.9461621 6.06598143,19.2224801 C5.95573607,19.3289953 5.91138928,19.4869032 5.95034812,19.6352785 C5.98909979,19.7836538 6.10494032,19.8994944 6.25331565,19.938246 C6.40169098,19.9772049 6.55959883,19.9328581 6.66611406,19.8226127 Z" id="Path"></path>
                            <path d="M16.9761273,12.7320955 C16.7417523,12.7320955 16.5516953,12.9221237 16.5516953,13.1564987 L16.5516953,14.3996602 C16.546129,16.4346403 17.3551475,18.387558 18.7980769,19.8226127 C18.9646883,19.9834218 19.2293186,19.9811422 19.3930289,19.817432 C19.556739,19.6537218 19.5590186,19.3890915 19.3982095,19.2224801 C18.1148458,17.9461621 17.395557,16.2095905 17.4005305,14.3996602 L17.4005305,13.1564987 C17.4005305,12.9221237 17.2105023,12.7320955 16.9761273,12.7320955 L16.9761273,12.7320955 Z" id="Path"></path>
                            <path d="M12.7320955,19.5225464 L12.7320955,12.7320955 C12.7320955,12.4977205 12.5420673,12.3076923 12.3076923,12.3076923 C12.0733173,12.3076923 11.8832891,12.4977205 11.8832891,12.7320955 L11.8832891,19.5225464 C11.8832891,19.7569214 12.0733173,19.9469496 12.3076923,19.9469496 C12.5420673,19.9469496 12.7320955,19.7569214 12.7320955,19.5225464 Z" id="Path"></path>
                            <path d="M24.1909814,0 L1.27320955,0 C0.570084562,0 0,0.570084562 0,1.27320955 L0,9.76127321 C0,10.4643982 0.570084562,11.0344828 1.27320955,11.0344828 L24.1909814,11.0344828 C24.8941064,11.0344828 25.464191,10.4643982 25.464191,9.76127321 L25.464191,1.27320955 C25.464191,0.570084562 24.8941064,0 24.1909814,0 Z M2.97082228,10.1856764 L2.97082228,9.33687003 L22.4933687,9.33687003 L22.4933687,10.1856764 L2.97082228,10.1856764 Z M22.4933687,8.48806366 L2.97082228,8.48806366 L2.97082228,7.63925729 L22.4933687,7.63925729 L22.4933687,8.48806366 Z M24.6153846,9.76127321 C24.6153846,9.99564822 24.4253564,10.1856764 24.1909814,10.1856764 L23.3421751,10.1856764 L23.3421751,6.79045093 L2.12201592,6.79045093 L2.12201592,10.1856764 L1.27320955,10.1856764 C1.03883454,10.1856764 0.848806366,9.99564822 0.848806366,9.76127321 L0.848806366,1.27320955 C0.848806366,1.03883454 1.03883454,0.848806366 1.27320955,0.848806366 L24.1909814,0.848806366 C24.4253564,0.848806366 24.6153846,1.03883454 24.6153846,1.27320955 L24.6153846,9.76127321 Z" id="Shape"></path>
                            <polygon id="Path" points="8.48806366 2.97082228 16.9761273 2.97082228 16.9761273 3.81962865 8.48806366 3.81962865"></polygon>
                            <polygon id="Path" points="22.9177719 1.69761273 23.7665782 1.69761273 23.7665782 2.5464191 22.9177719 2.5464191"></polygon>
                            <polygon id="Path" points="21.2201592 1.69761273 22.0689655 1.69761273 22.0689655 2.5464191 21.2201592 2.5464191"></polygon>
                        </g>
                    </g>
                </g>
            </g>
        </g>
    </g>
</svg>