<?xml version="1.0" encoding="UTF-8"?>
<svg width="20px" height="20px" viewBox="0 0 20 20" version="1.1" xmlns="http://www.w3.org/2000/svg" xmlns:xlink="http://www.w3.org/1999/xlink">
    <!-- Generator: Sketch 60 (88103) - https://sketch.com -->
    <title>icon_car</title>
    <desc>Created with Sketch.</desc>
    <g id="City-Guide" stroke="none" stroke-width="1" fill="none" fill-rule="evenodd">
        <g id="03_Place-Detail-1" transform="translate(-878.000000, -569.000000)" fill="#5D5D5D" fill-rule="nonzero">
            <g id="detail" transform="translate(135.000000, 569.000000)">
                <g id="amenities">
                    <g id="1" transform="translate(119.000000, 0.000000)">
                        <g id="icon_car" transform="translate(624.000000, 0.000000)">
                            <path d="M3.91961722,18.1151196 C3.73933014,18.1151196 3.59301435,18.2614354 3.59301435,18.4417225 L3.59301435,19.2713876 L0.653301435,19.2713876 L0.653301435,16.9849761 C0.653301435,16.804689 0.506985646,16.6583732 0.326698565,16.6583732 C0.146411483,16.6583732 9.56937799e-05,16.804689 9.56937799e-05,16.9849761 L9.56937799e-05,19.5980861 C9.56937799e-05,19.7783732 0.146411483,19.924689 0.326698565,19.924689 L3.91961722,19.924689 C4.09990431,19.924689 4.2462201,19.7783732 4.2462201,19.5980861 L4.2462201,18.4418182 C4.2462201,18.2615311 4.09990431,18.1151196 3.91961722,18.1151196 Z" id="Path"></path>
                            <path d="M19.2714833,16.6583732 C19.0911962,16.6583732 18.9448804,16.804689 18.9448804,16.9849761 L18.9448804,19.2713876 L16.0051675,19.2713876 L16.0051675,18.4066029 C16.0051675,18.2263158 15.8588517,18.08 15.6785646,18.08 C15.4982775,18.08 15.3519617,18.2263158 15.3519617,18.4066029 L15.3519617,19.5979904 C15.3519617,19.7782775 15.4982775,19.9245933 15.6785646,19.9245933 L19.2715789,19.9245933 C19.451866,19.9245933 19.5981818,19.7782775 19.5981818,19.5979904 L19.5981818,16.9848804 C19.5980861,16.804689 19.4517703,16.6583732 19.2714833,16.6583732 Z" id="Path"></path>
                            <path d="M6.6891866,17.9648804 L1.80535885,17.9648804 C1.17023923,17.9648804 0.653301435,17.448134 0.653301435,16.812823 L0.653301435,14.0452632 C0.653301435,13.8649761 0.506985646,13.7186603 0.326698565,13.7186603 C0.146411483,13.7186603 9.56937799e-05,13.8649761 9.56937799e-05,14.0452632 L9.56937799e-05,16.812823 C9.56937799e-05,17.8082297 0.809952153,18.6181818 1.80535885,18.6181818 L6.6891866,18.6181818 C6.86947368,18.6181818 7.01578947,18.471866 7.01578947,18.2915789 C7.01578947,18.1111962 6.86947368,17.9648804 6.6891866,17.9648804 Z" id="Path"></path>
                            <path d="M19.2714833,13.7186603 C19.0911962,13.7186603 18.9448804,13.8649761 18.9448804,14.0452632 L18.9448804,16.812823 C18.9448804,17.448134 18.428134,17.9648804 17.792823,17.9648804 L12.5738756,17.9648804 C12.3935885,17.9648804 12.2472727,18.1111962 12.2472727,18.2914833 C12.2472727,18.4717703 12.3935885,18.6180861 12.5738756,18.6180861 L17.792823,18.6180861 C18.7882297,18.6180861 19.5981818,17.8082297 19.5981818,16.8127273 L19.5981818,14.0451675 C19.5980861,13.8649761 19.4517703,13.7186603 19.2714833,13.7186603 Z" id="Path"></path>
                            <path d="M17.5086124,10.1748325 L17.3629665,9.15521531 C17.3484211,9.05358852 17.3292823,8.95205742 17.305933,8.85291866 C17.2645933,8.67722488 17.0880383,8.56794258 16.9133014,8.60956938 C16.7377033,8.65090909 16.6288038,8.82660287 16.6701435,9.00220096 C16.6888995,9.08258373 16.7044019,9.16507177 16.7161722,9.24746411 L16.8618182,10.267177 C16.8851675,10.4300478 17.0249761,10.5475598 17.1848804,10.5475598 C17.2001914,10.5475598 17.2157895,10.5464115 17.2313876,10.5443062 C17.4099522,10.518756 17.534067,10.3534928 17.5086124,10.1748325 Z" id="Path"></path>
                            <path d="M11.1055502,6.20602871 L5.635311,6.20602871 C3.93712919,6.20602871 2.4754067,7.4738756 2.2354067,9.15492823 L2.07684211,10.2643062 C2.05119617,10.4429665 2.175311,10.6084211 2.35397129,10.6338756 C2.36966507,10.6361722 2.38516746,10.6373206 2.40047847,10.6373206 C2.56038278,10.6373206 2.70019139,10.5197129 2.72334928,10.3569378 L2.88191388,9.24755981 C3.07636364,7.88593301 4.26009569,6.85933014 5.635311,6.85933014 L11.1056459,6.85933014 C11.285933,6.85933014 11.4322488,6.71301435 11.4322488,6.53272727 C11.4322488,6.35244019 11.285933,6.20602871 11.1055502,6.20602871 Z" id="Path"></path>
                            <path d="M18.1904306,11.1477512 C17.8920574,10.8544498 17.6628708,10.5026794 17.509378,10.1018182 C17.4707177,10.0007656 17.3844019,9.92545455 17.2791388,9.90057416 C17.1739713,9.87626794 17.0630622,9.90497608 16.9833493,9.97818182 C16.4217225,10.4947368 15.6951196,10.7791388 14.9376077,10.7791388 L4.66095694,10.7791388 C3.90344498,10.7791388 3.1769378,10.4948325 2.61511962,9.97818182 C2.5354067,9.90488038 2.42488038,9.87607656 2.31923445,9.90057416 C2.2138756,9.92535885 2.1276555,10.0006699 2.08899522,10.1018182 C1.93559809,10.5025837 1.70669856,10.8543541 1.40813397,11.1477512 C0.477416268,12.0620096 -0.0223923445,13.2844019 0.00114832536,14.5899522 C0.024784689,15.9105263 1.13751196,16.9849761 2.48162679,16.9849761 L17.1170335,16.9849761 C18.4611483,16.9849761 19.5737799,15.9105263 19.5977033,14.5899522 C19.6209569,13.2844019 19.121244,12.0621053 18.1904306,11.1477512 Z M17.1166507,16.3317703 L2.48124402,16.3317703 C1.49100478,16.3317703 0.671196172,15.5452632 0.654066986,14.5780861 C0.633971292,13.4539713 1.06411483,12.4010526 1.86574163,11.6136842 C2.12708134,11.3567464 2.34488038,11.0638278 2.51626794,10.7391388 C3.14,11.1886124 3.88679426,11.4322488 4.66066986,11.4324402 L14.9374163,11.4324402 C15.7111962,11.4324402 16.4581818,11.1888038 17.0819139,10.7393301 C17.2532057,11.0640191 17.4709091,11.3570335 17.7324402,11.6138756 C18.5338756,12.401244 18.9642105,13.4539713 18.9441148,14.5782775 C18.9266986,15.5451675 18.1067943,16.3317703 17.1166507,16.3317703 Z" id="Shape"></path>
                            <path d="M5.45712919,7.60832536 C5.32976077,7.48076555 5.12267943,7.48076555 4.995311,7.60832536 L4.0154067,8.58822967 C3.88784689,8.71578947 3.88784689,8.92258373 4.0154067,9.05004785 C4.07913876,9.1138756 4.16267943,9.14574163 4.24631579,9.14574163 C4.32995215,9.14574163 4.41358852,9.1138756 4.47722488,9.05004785 L5.45712919,8.07014354 C5.5845933,7.94258373 5.5845933,7.73588517 5.45712919,7.60832536 Z" id="Path"></path>
                            <path d="M7.09023923,7.28162679 C6.96287081,7.15406699 6.75578947,7.15406699 6.62842105,7.28162679 L4.17866029,9.73138756 C4.05110048,9.85894737 4.05110048,10.0657416 4.17866029,10.1932057 C4.24239234,10.2570335 4.32593301,10.2888995 4.40956938,10.2888995 C4.49320574,10.2888995 4.57684211,10.2570335 4.64047847,10.1932057 L7.09023923,7.74344498 C7.21779904,7.61598086 7.21779904,7.4091866 7.09023923,7.28162679 Z" id="Path"></path>
                            <path d="M13.3920574,8.81913876 C12.1312919,8.81913876 11.1056459,9.84478469 11.1056459,11.1055502 C11.1056459,11.2858373 11.2519617,11.4321531 11.4322488,11.4321531 C11.6125359,11.4321531 11.7588517,11.2858373 11.7588517,11.1055502 C11.7588517,10.2049761 12.4914833,9.4723445 13.3920574,9.4723445 C14.2926316,9.4723445 15.0252632,10.2049761 15.0252632,11.1055502 C15.0252632,11.2858373 15.1715789,11.4321531 15.351866,11.4321531 C15.5321531,11.4321531 15.6784689,11.2858373 15.6784689,11.1055502 C15.6784689,9.84478469 14.652823,8.81913876 13.3920574,8.81913876 Z" id="Path"></path>
                            <path d="M3.91961722,13.7186603 L1.30650718,13.7186603 C1.1262201,13.7186603 0.979904306,13.8649761 0.979904306,14.0452632 L0.979904306,14.6985646 C0.979904306,15.2389474 1.41942584,15.6784689 1.95980861,15.6784689 L3.91961722,15.6784689 C4.46,15.6784689 4.89952153,15.2389474 4.89952153,14.6985646 C4.89952153,14.1581818 4.46,13.7186603 3.91961722,13.7186603 Z M3.91961722,15.0251675 L1.95980861,15.0251675 C1.77971292,15.0251675 1.63320574,14.8786603 1.63320574,14.6985646 L1.63320574,14.3719617 L3.91961722,14.3719617 C4.09971292,14.3719617 4.2462201,14.5184689 4.2462201,14.6985646 C4.2462201,14.8786603 4.09971292,15.0251675 3.91961722,15.0251675 Z" id="Shape"></path>
                            <path d="M18.2915789,13.7186603 L15.6784689,13.7186603 C15.1380861,13.7186603 14.6985646,14.1581818 14.6985646,14.6985646 C14.6985646,15.2389474 15.1380861,15.6784689 15.6784689,15.6784689 L17.6382775,15.6784689 C18.1786603,15.6784689 18.6181818,15.2389474 18.6181818,14.6985646 L18.6181818,14.0452632 C18.6181818,13.8649761 18.471866,13.7186603 18.2915789,13.7186603 Z M17.9648804,14.6985646 C17.9648804,14.8786603 17.8183732,15.0251675 17.6382775,15.0251675 L15.6784689,15.0251675 C15.4983732,15.0251675 15.351866,14.8786603 15.351866,14.6985646 C15.351866,14.5184689 15.4983732,14.3719617 15.6784689,14.3719617 L17.9648804,14.3719617 L17.9648804,14.6985646 Z" id="Shape"></path>
                            <path d="M12.4121531,16.3317703 L6.85933014,16.3317703 C6.67904306,16.3317703 6.53272727,16.4780861 6.53272727,16.6583732 L6.53272727,18.6181818 C6.53272727,18.7984689 6.67904306,18.9447847 6.85933014,18.9447847 L12.4121531,18.9447847 C12.5924402,18.9447847 12.738756,18.7984689 12.738756,18.6181818 L12.738756,16.6583732 C12.738756,16.4780861 12.5924402,16.3317703 12.4121531,16.3317703 Z M12.0854545,18.2915789 L7.18593301,18.2915789 L7.18593301,16.9850718 L12.0854545,16.9850718 L12.0854545,18.2915789 Z" id="Shape"></path>
                            <path d="M12.9021053,13.3920574 L6.69598086,13.3920574 C6.06555024,13.3920574 5.55272727,13.9050718 5.55272727,14.535311 C5.55272727,15.1655502 6.06555024,15.6785646 6.69598086,15.6785646 L12.9020096,15.6785646 C13.5324402,15.6785646 14.0452632,15.1655502 14.0452632,14.535311 C14.0452632,13.9050718 13.5324402,13.3920574 12.9021053,13.3920574 Z M12.9021053,15.0251675 L6.69598086,15.0251675 C6.42583732,15.0251675 6.20602871,14.8053589 6.20602871,14.5352153 C6.20602871,14.2650718 6.42583732,14.0452632 6.69598086,14.0452632 L12.9020096,14.0452632 C13.1721531,14.0452632 13.3919618,14.2650718 13.3919618,14.5352153 C13.3920574,14.8053589 13.1722488,15.0251675 12.9021053,15.0251675 Z" id="Shape"></path>
                            <path d="M7.83923445,13.3920574 C7.65894737,13.3920574 7.51263158,13.5383732 7.51263158,13.7186603 L7.51263158,15.351866 C7.51263158,15.5321531 7.65894737,15.6784689 7.83923445,15.6784689 C8.01952153,15.6784689 8.16583732,15.5321531 8.16583732,15.351866 L8.16583732,13.7186603 C8.16583732,13.5383732 8.01952153,13.3920574 7.83923445,13.3920574 Z" id="Path"></path>
                            <path d="M9.79904306,13.3920574 C9.61875598,13.3920574 9.47244019,13.5383732 9.47244019,13.7186603 L9.47244019,15.351866 C9.47244019,15.5321531 9.61875598,15.6784689 9.79904306,15.6784689 C9.97933014,15.6784689 10.1256459,15.5321531 10.1256459,15.351866 L10.1256459,13.7186603 C10.1256459,13.5383732 9.97933014,13.3920574 9.79904306,13.3920574 Z" id="Path"></path>
                            <path d="M11.7588517,13.3920574 C11.5785646,13.3920574 11.4322488,13.5383732 11.4322488,13.7186603 L11.4322488,15.351866 C11.4322488,15.5321531 11.5785646,15.6784689 11.7588517,15.6784689 C11.9391388,15.6784689 12.0854545,15.5321531 12.0854545,15.351866 L12.0854545,13.7186603 C12.0854545,13.5383732 11.9391388,13.3920574 11.7588517,13.3920574 Z" id="Path"></path>
                            <path d="M15.1885167,0 C12.5769378,0 10.4523445,2.12478469 10.4523445,4.73617225 C10.4523445,7.34755981 12.5769378,9.4723445 15.1885167,9.4723445 C17.8000957,9.4723445 19.924689,7.34755981 19.924689,4.73617225 C19.924689,2.12478469 17.8000957,0 15.1885167,0 Z M15.1885167,8.81913876 C12.9372249,8.81913876 11.1055502,6.98755981 11.1055502,4.73617225 C11.1055502,2.48488038 12.9371292,0.653205742 15.1885167,0.653205742 C17.4399043,0.653205742 19.2714833,2.48478469 19.2714833,4.73617225 C19.2714833,6.98755981 17.4398086,8.81913876 15.1885167,8.81913876 Z" id="Shape"></path>
                            <path d="M16.5478469,2.97282297 C16.2734928,2.72593301 15.8413397,2.58870813 15.2515789,2.58870813 C14.7713876,2.58870813 14.3943541,2.62956938 14.1062201,2.67770335 L14.1065072,2.67770335 L14.1065072,7.24516746 L14.7030622,7.24516746 L14.7030622,5.39349282 C14.8400957,5.4276555 15.004689,5.43464115 15.1830622,5.43464115 C15.765933,5.43464115 16.2801914,5.26315789 16.5957895,4.92717703 C16.8289952,4.68698565 16.9524402,4.35789474 16.9524402,3.93961722 C16.9525359,3.52813397 16.8016268,3.1923445 16.5478469,2.97282297 Z M15.196555,4.95473684 C14.997799,4.95473684 14.8332057,4.94105263 14.7028708,4.90660287 L14.7028708,3.11004785 C14.8057416,3.08258373 15.0044976,3.06191388 15.2651675,3.06191388 C15.9235407,3.06191388 16.3555981,3.35703349 16.3555981,3.96717703 C16.3555981,4.604689 15.916555,4.95473684 15.196555,4.95473684 Z" id="Shape"></path>
                        </g>
                    </g>
                </g>
            </g>
        </g>
    </g>
</svg>