<?xml version="1.0" encoding="UTF-8"?>
<svg width="25px" height="20px" viewBox="0 0 25 20" version="1.1" xmlns="http://www.w3.org/2000/svg" xmlns:xlink="http://www.w3.org/1999/xlink">
    <!-- Generator: Sketch 53.2 (72643) - https://sketchapp.com -->
    <title>icon_creditcard</title>
    <desc>Created with Sketch.</desc>
    <g id="Page-1" stroke="none" stroke-width="1" fill="none" fill-rule="evenodd">
        <g id="03_Place-Detail-4-hover" transform="translate(-766.000000, -772.000000)" fill="#5D5D5D" fill-rule="nonzero">
            <g id="popup">
                <g id="Group-6" transform="translate(435.000000, 694.000000)">
                    <g id="1" transform="translate(304.000000, 78.000000)">
                        <g id="icon_creditcard" transform="translate(27.000000, 0.000000)">
                            <path d="M13.0342243,13.8494988 L19.5513126,13.8494988 C19.7957041,13.8494988 19.9586158,13.6865871 19.9586158,13.4421957 L19.9586158,9.77632458 C19.9586158,9.53193317 19.7957041,9.36902148 19.5513126,9.36902148 L13.0342243,9.36902148 C12.7898329,9.36902148 12.6269212,9.53193317 12.6269212,9.77632458 L12.6269212,13.4421957 C12.6268735,13.6865394 12.7898329,13.8494988 13.0342243,13.8494988 Z M13.4415274,10.1836277 L19.1440095,10.1836277 L19.1440095,13.0348449 L13.4415274,13.0348449 L13.4415274,10.1836277 Z" id="Shape"></path>
                            <path d="M2.03661098,8.55431981 L5.295179,8.55431981 C5.53957041,8.55431981 5.7024821,8.39140811 5.7024821,8.14701671 C5.7024821,7.9026253 5.53957041,7.7397136 5.295179,7.7397136 L2.03661098,7.7397136 C1.79221957,7.7397136 1.62930788,7.9026253 1.62930788,8.14701671 C1.62930788,8.39140811 1.79221957,8.55431981 2.03661098,8.55431981 Z" id="Path"></path>
                            <path d="M6.92443914,8.55431981 L10.1830072,8.55431981 C10.4273986,8.55431981 10.5903103,8.39140811 10.5903103,8.14701671 C10.5903103,7.9026253 10.4273986,7.7397136 10.1830072,7.7397136 L6.92443914,7.7397136 C6.68004773,7.7397136 6.51713604,7.9026253 6.51713604,8.14701671 C6.51713604,8.39140811 6.68004773,8.55431981 6.92443914,8.55431981 Z" id="Path"></path>
                            <path d="M2.03661098,10.1836277 L7.33174224,10.1836277 C7.57613365,10.1836277 7.73904535,10.020716 7.73904535,9.77632458 C7.73904535,9.53193317 7.57613365,9.36902148 7.33174224,9.36902148 L2.03661098,9.36902148 C1.79221957,9.36902148 1.62930788,9.53193317 1.62930788,9.77632458 C1.62930788,10.020716 1.79221957,10.1836277 2.03661098,10.1836277 Z" id="Path"></path>
                            <path d="M10.1829594,9.36897375 L8.96100239,9.36897375 C8.71661098,9.36897375 8.55369928,9.53188544 8.55369928,9.77627685 C8.55369928,10.0206683 8.71661098,10.18358 8.96100239,10.18358 L10.1829594,10.18358 C10.4273508,10.18358 10.5902625,10.0206683 10.5902625,9.77627685 C10.5902625,9.53188544 10.4273508,9.36897375 10.1829594,9.36897375 Z" id="Path"></path>
                            <path d="M24.0725537,4.31823389 C23.7874463,3.95164678 23.4208592,3.74797136 22.9727924,3.70725537 L21.9952267,3.58878282 L21.9952267,2.44453461 L21.9952267,1.6299284 C21.9952267,0.733842482 21.2620525,0.000668257757 20.3659666,0.000668257757 L1.62926014,0.000668257757 C0.733174224,0.00062052506 0,0.733794749 0,1.6299284 L0,2.44458234 L0,5.70315036 L0,14.6641527 C0,15.3998568 0.494367542,16.0253938 1.16720764,16.2258711 C1.14668258,17.0498329 1.77011933,17.7651551 2.60687351,17.8412411 L21.4250119,19.959284 C21.4657279,19.959284 21.5472076,19.959284 21.5879236,19.959284 C22.4025776,19.959284 23.1357518,19.3483055 23.2171838,18.5744153 L24.4391408,5.49947494 C24.4798568,5.09212411 24.3576611,4.64405728 24.0725537,4.31823389 Z M0.814653938,2.85188544 L21.1806205,2.85188544 L21.1806205,3.91093079 L21.1806205,5.29579952 L0.814653938,5.29579952 L0.814653938,2.85188544 Z M1.62926014,0.815274463 L20.3659189,0.815274463 C20.8139857,0.815274463 21.1805728,1.18186158 21.1805728,1.6299284 L21.1805728,2.0372315 L0.814653938,2.0372315 L0.814653938,1.6299284 C0.814653938,1.18186158 1.18124105,0.815274463 1.62926014,0.815274463 Z M0.814653938,14.664105 L0.814653938,6.11040573 L21.1806205,6.11040573 L21.1806205,14.664105 C21.1806205,15.1121718 20.8140334,15.4787589 20.3659666,15.4787589 L1.67002387,15.4787589 L1.62930788,15.4787589 C1.18124105,15.4787589 0.814653938,15.1121718 0.814653938,14.664105 Z M23.6244869,5.33651551 L22.4025298,18.4114558 C22.3618138,18.8595227 21.954463,19.1853461 21.5064439,19.1446301 L2.72902148,17.0265871 C2.32171838,16.9858711 2.03656325,16.66 1.99584726,16.2934129 L20.3659189,16.2934129 C21.2620048,16.2934129 21.995179,15.5602387 21.995179,14.6641527 L21.995179,5.70310263 L21.995179,4.35894988 L22.9320286,4.44042959 C23.1357041,4.44042959 23.3393317,4.5626253 23.4615274,4.72553699 C23.5837709,4.88844869 23.6652506,5.1328401 23.6244869,5.33651551 Z" id="Shape"></path>
                        </g>
                    </g>
                </g>
            </g>
        </g>
    </g>
</svg>