<?xml version="1.0" encoding="UTF-8"?>
<svg width="20px" height="20px" viewBox="0 0 20 20" version="1.1" xmlns="http://www.w3.org/2000/svg" xmlns:xlink="http://www.w3.org/1999/xlink">
    <!-- Generator: Sketch 53.2 (72643) - https://sketchapp.com -->
    <title>icon_reservations</title>
    <desc>Created with Sketch.</desc>
    <g id="Page-1" stroke="none" stroke-width="1" fill="none" fill-rule="evenodd">
        <g id="03_Place-Detail-4-hover" transform="translate(-620.000000, -772.000000)" fill="#5D5D5D" fill-rule="nonzero">
            <g id="popup">
                <g id="Group-6" transform="translate(435.000000, 694.000000)">
                    <g id="1" transform="translate(155.000000, 78.000000)">
                        <g id="icon_reservations" transform="translate(30.000000, 0.000000)">
                            <path d="M18.3333333,2.66666667 L18,2.66666667 L18,1 C18,0.448666667 17.5513333,0 17,0 L16.3333333,0 C15.782,0 15.3333333,0.448666667 15.3333333,1 L15.3333333,2.66666667 L4.66666667,2.66666667 L4.66666667,1 C4.66666667,0.448666667 4.218,0 3.66666667,0 L3,0 C2.44866667,0 2,0.448666667 2,1 L2,2.66666667 L1.66666667,2.66666667 C0.747666667,2.66666667 0,3.41433333 0,4.33333333 L0,18.3333333 C0,19.2523333 0.747666667,20 1.66666667,20 L18.3333333,20 C19.2523333,20 20,19.2523333 20,18.3333333 L20,4.33333333 C20,3.41433333 19.2523333,2.66666667 18.3333333,2.66666667 Z M16,3 L16,1 C16,0.816 16.1493333,0.666666667 16.3333333,0.666666667 L17,0.666666667 C17.184,0.666666667 17.3333333,0.816 17.3333333,1 L17.3333333,3 L17.3333333,4.33333333 C17.3333333,4.51733333 17.184,4.66666667 17,4.66666667 L16.3333333,4.66666667 C16.1493333,4.66666667 16,4.51733333 16,4.33333333 L16,3 Z M2.66666667,3 L2.66666667,1 C2.66666667,0.816 2.816,0.666666667 3,0.666666667 L3.66666667,0.666666667 C3.85066667,0.666666667 4,0.816 4,1 L4,3 L4,4.33333333 C4,4.51733333 3.85066667,4.66666667 3.66666667,4.66666667 L3,4.66666667 C2.816,4.66666667 2.66666667,4.51733333 2.66666667,4.33333333 L2.66666667,3 Z M19.3333333,18.3333333 C19.3333333,18.8846667 18.8846667,19.3333333 18.3333333,19.3333333 L1.66666667,19.3333333 C1.11533333,19.3333333 0.666666667,18.8846667 0.666666667,18.3333333 L0.666666667,8.66666667 L19.3333333,8.66666667 L19.3333333,18.3333333 Z M19.3333333,8 L0.666666667,8 L0.666666667,4.33333333 C0.666666667,3.782 1.11533333,3.33333333 1.66666667,3.33333333 L2,3.33333333 L2,4.33333333 C2,4.88466667 2.44866667,5.33333333 3,5.33333333 L3.66666667,5.33333333 C4.218,5.33333333 4.66666667,4.88466667 4.66666667,4.33333333 L4.66666667,3.33333333 L15.3333333,3.33333333 L15.3333333,4.33333333 C15.3333333,4.88466667 15.782,5.33333333 16.3333333,5.33333333 L17,5.33333333 C17.5513333,5.33333333 18,4.88466667 18,4.33333333 L18,3.33333333 L18.3333333,3.33333333 C18.8846667,3.33333333 19.3333333,3.782 19.3333333,4.33333333 L19.3333333,8 Z" id="Shape"></path>
                            <path d="M6.83333333,11 L4.83333333,11 C4.649,11 4.5,11.149 4.5,11.3333333 L4.5,13 C4.5,13.1843333 4.649,13.3333333 4.83333333,13.3333333 L6.83333333,13.3333333 C7.01766667,13.3333333 7.16666667,13.1843333 7.16666667,13 L7.16666667,11.3333333 C7.16666667,11.149 7.01766667,11 6.83333333,11 Z M6.5,12.6666667 L5.16666667,12.6666667 L5.16666667,11.6666667 L6.5,11.6666667 L6.5,12.6666667 Z" id="Shape"></path>
                            <path d="M11.1666667,11 L9.16666667,11 C8.98233333,11 8.83333333,11.149 8.83333333,11.3333333 L8.83333333,13 C8.83333333,13.1843333 8.98233333,13.3333333 9.16666667,13.3333333 L11.1666667,13.3333333 C11.351,13.3333333 11.5,13.1843333 11.5,13 L11.5,11.3333333 C11.5,11.149 11.351,11 11.1666667,11 Z M10.8333333,12.6666667 L9.5,12.6666667 L9.5,11.6666667 L10.8333333,11.6666667 L10.8333333,12.6666667 Z" id="Shape"></path>
                            <path d="M15.8333333,11 L13.8333333,11 C13.649,11 13.5,11.149 13.5,11.3333333 L13.5,13 C13.5,13.1843333 13.649,13.3333333 13.8333333,13.3333333 L15.8333333,13.3333333 C16.0176667,13.3333333 16.1666667,13.1843333 16.1666667,13 L16.1666667,11.3333333 C16.1666667,11.149 16.0176667,11 15.8333333,11 Z M15.5,12.6666667 L14.1666667,12.6666667 L14.1666667,11.6666667 L15.5,11.6666667 L15.5,12.6666667 Z" id="Shape"></path>
                            <path d="M6.83333333,15.0833333 L4.83333333,15.0833333 C4.649,15.0833333 4.5,15.2323333 4.5,15.4166667 L4.5,17.0833333 C4.5,17.2676667 4.649,17.4166667 4.83333333,17.4166667 L6.83333333,17.4166667 C7.01766667,17.4166667 7.16666667,17.2676667 7.16666667,17.0833333 L7.16666667,15.4166667 C7.16666667,15.2323333 7.01766667,15.0833333 6.83333333,15.0833333 Z M6.5,16.75 L5.16666667,16.75 L5.16666667,15.75 L6.5,15.75 L6.5,16.75 Z" id="Shape"></path>
                            <path d="M11.1666667,15.0833333 L9.16666667,15.0833333 C8.98233333,15.0833333 8.83333333,15.2323333 8.83333333,15.4166667 L8.83333333,17.0833333 C8.83333333,17.2676667 8.98233333,17.4166667 9.16666667,17.4166667 L11.1666667,17.4166667 C11.351,17.4166667 11.5,17.2676667 11.5,17.0833333 L11.5,15.4166667 C11.5,15.2323333 11.351,15.0833333 11.1666667,15.0833333 Z M10.8333333,16.75 L9.5,16.75 L9.5,15.75 L10.8333333,15.75 L10.8333333,16.75 Z" id="Shape"></path>
                            <path d="M15.9106667,14.87 L14.4776667,16.5896667 L13.7356667,15.8476667 L13.2643333,16.319 L14.2643333,17.319 C14.3266667,17.382 14.4116667,17.4166667 14.5,17.4166667 C14.505,17.4166667 14.51,17.4166667 14.515,17.4163333 C14.6086667,17.412 14.696,17.3686667 14.7563333,17.297 L16.423,15.297 L15.9106667,14.87 Z" id="Path"></path>
                        </g>
                    </g>
                </g>
            </g>
        </g>
    </g>
</svg>