<?xml version="1.0" encoding="UTF-8"?>
<svg width="17px" height="20px" viewBox="0 0 17 20" version="1.1" xmlns="http://www.w3.org/2000/svg" xmlns:xlink="http://www.w3.org/1999/xlink">
    <!-- Generator: Sketch 60 (88103) - https://sketch.com -->
    <title>icon_cocktail</title>
    <desc>Created with Sketch.</desc>
    <g id="City-Guide" stroke="none" stroke-width="1" fill="none" fill-rule="evenodd">
        <g id="03_Place-Detail-1" transform="translate(-265.000000, -570.000000)" fill="#5D5D5D" fill-rule="nonzero">
            <g id="detail" transform="translate(135.000000, 570.000000)">
                <g id="amenities">
                    <g id="1" transform="translate(119.000000, 0.000000)">
                        <g id="icon_cocktail" transform="translate(11.000000, 0.000000)">
                            <path d="M9.588125,10.3120703 L16.8521484,2.32066406 C17.0121094,2.14464844 17.0517188,1.90019531 16.9554688,1.68269531 C16.8592578,1.46519531 16.6517188,1.33007812 16.4139063,1.33007812 L14.1417969,1.33007812 L14.93375,0.494804687 C15.0451562,0.377304687 15.0401953,0.191796875 14.9227344,0.080390625 C14.8052734,-0.0309375 14.6197656,-0.0260546875 14.5083203,0.0914453125 L13.3339453,1.33011719 L0.617382813,1.33011719 C0.37953125,1.33011719 0.171992188,1.46523437 0.07578125,1.68273437 C-0.0204296875,1.90027344 0.0191796875,2.14472656 0.179140625,2.32070312 L7.44316406,10.3120703 C7.52058594,10.3972266 7.60757813,10.4717578 7.70136719,10.5353906 L7.70136719,17.5768359 C7.70136719,17.94875 7.46535156,18.2807031 7.1140625,18.4028125 L4.68019531,19.2490625 C4.67425781,19.2511328 4.66839844,19.2533594 4.66265625,19.2557812 C4.49074219,19.3282422 4.39648438,19.5065625 4.43339844,19.6894141 C4.47035156,19.8722656 4.62644531,20.0000034 4.81300781,20.0000034 L12.2182031,20.0000034 C12.4047656,20.0000034 12.5608984,19.8723047 12.5978516,19.6894141 C12.6348047,19.5065625 12.5405078,19.3282031 12.3685938,19.2557812 C12.3628516,19.2533594 12.3569531,19.2510937 12.3510547,19.2490625 L9.9171875,18.4028125 C9.5659375,18.2806641 9.32988281,17.94875 9.32988281,17.5768359 L9.32988281,10.5354297 C9.42371094,10.4717578 9.51070313,10.3972266 9.588125,10.3120703 Z M13.5859766,1.91636719 L16.4139063,1.91636719 C16.4157812,1.91636719 16.416875,1.91640625 16.4171875,1.91644531 C16.4188281,1.91808594 16.420625,1.92214844 16.4207422,1.92316406 C16.4207422,1.92316406 16.4201953,1.92425781 16.4183203,1.92632812 L14.6142187,3.91109375 L13.1722656,3.91109375 C13.3040625,3.48886719 13.2201172,2.99976562 12.931875,2.60628906 L13.5859766,1.91636719 Z M9.72464844,18.9565625 L11.0394922,19.4137109 L5.99175781,19.4137109 L7.30660156,18.9565625 C7.89339844,18.7525391 8.28765625,18.1980859 8.28765625,17.5768359 L8.28765625,10.7683203 C8.30058594,10.7704297 8.31363281,10.771875 8.32664062,10.7735937 C8.33351563,10.7744922 8.34039063,10.7755078 8.34726563,10.7763281 C8.3628125,10.7781641 8.37839844,10.7796094 8.39398438,10.7808984 C8.39867187,10.7812891 8.40335938,10.7816797 8.40804688,10.7820313 C8.44375,10.7846875 8.47960938,10.7865234 8.51566406,10.7865234 C8.55175781,10.7865234 8.58765625,10.7846875 8.6234375,10.7819922 C8.62796875,10.7816406 8.63253906,10.7812891 8.63707031,10.7808984 C8.6528125,10.7795703 8.66851563,10.778125 8.68417969,10.7762891 C8.69074219,10.7755469 8.69726563,10.7745312 8.70382813,10.7736719 C8.71710937,10.7719141 8.73042969,10.7704297 8.74363281,10.7683203 L8.74363281,17.5767578 C8.74359375,18.1980859 9.13785156,18.7525391 9.72464844,18.9565625 Z M9.15429688,9.91769531 C9.0834375,9.99566406 9.00128906,10.0585156 8.91125,10.1050781 C8.9090625,10.1060937 8.90679688,10.1067969 8.90464844,10.1078906 C8.66105469,10.2308203 8.37015625,10.2308594 8.1265625,10.1078906 C8.12445313,10.1068359 8.1221875,10.1061328 8.12003906,10.1051172 C8.03,10.0585547 7.94785156,9.99570312 7.87695313,9.91773437 L2.94996094,4.49734375 L4.03695313,4.49734375 C4.19882813,4.49734375 4.33007812,4.36609375 4.33007812,4.20421875 C4.33007812,4.04234375 4.19882813,3.91109375 4.03695313,3.91109375 L2.41703125,3.91109375 L0.612929688,1.92632812 C0.611640625,1.92492187 0.610976563,1.92398437 0.61078125,1.92382812 C0.61078125,1.92152344 0.612695313,1.9175 0.613320312,1.91671875 C0.613320312,1.91671875 0.614492188,1.91636719 0.61734375,1.91636719 L12.7780859,1.91636719 L12.5066406,2.20265625 C12.2671875,2.04558594 11.9933594,1.95648437 11.7130859,1.9475 C11.3250391,1.93507812 10.9704687,2.07609375 10.7157812,2.34480469 C10.4610547,2.61347656 10.3389844,2.9746875 10.3721094,3.361875 C10.3764453,3.41234375 10.3835547,3.46242187 10.3930078,3.51199219 C9.97011719,3.45496094 9.54320313,3.58160156 9.24574219,3.8953125 C9.24085938,3.90046875 9.23640625,3.90585937 9.23160156,3.91109375 L5.40097656,3.91109375 C5.23910156,3.91109375 5.10785156,4.04234375 5.10785156,4.20421875 C5.10785156,4.36609375 5.23910156,4.49734375 5.40097656,4.49734375 L8.92933594,4.49734375 C8.88949219,4.68003906 8.88816406,4.87207031 8.9240625,5.06136719 C8.87402344,5.05460937 8.82363281,5.05015625 8.77300781,5.04851562 C8.38464844,5.0359375 8.03042969,5.17710937 7.77570312,5.44582031 C7.32207031,5.92429687 7.31828125,6.68027344 7.72933594,7.24148437 L7.40527344,7.58328125 C7.29390625,7.70078125 7.29882812,7.88628906 7.41632812,7.99769531 C7.47300781,8.05144531 7.54554687,8.07808594 7.61796875,8.07808594 C7.69558594,8.07808594 7.773125,8.04742187 7.83074219,7.98664062 L8.15457031,7.64507812 C8.39402344,7.80214844 8.6678125,7.89125 8.94816406,7.90023437 C8.96402344,7.90074219 8.97976562,7.90101562 8.99550781,7.90101562 C9.36527344,7.90101562 9.70117188,7.76066406 9.94550781,7.50296875 C10.2002344,7.23429687 10.3223047,6.87308594 10.2891797,6.48589844 C10.2848438,6.43546875 10.2777344,6.38542969 10.2683203,6.33585937 C10.33375,6.3446875 10.3992969,6.349375 10.4644141,6.349375 C10.8202344,6.349375 11.1641797,6.21761719 11.4155859,5.95242187 C11.7130469,5.63867187 11.8167578,5.205625 11.7372656,4.78636719 C11.7873047,4.793125 11.8376953,4.79757812 11.8882812,4.79921875 C11.9041406,4.79972656 11.9198828,4.8 11.935625,4.8 C12.2567969,4.8 12.5523047,4.69398437 12.7845313,4.49730469 L14.0814063,4.49730469 L9.15429688,9.91769531 Z M9.67113281,4.29867187 C9.80800781,4.15433594 9.99707031,4.08324219 10.1967578,4.08324219 C10.4261328,4.08324219 10.6695703,4.17703125 10.8639453,4.36132812 C11.2275391,4.70613281 11.2841016,5.23894531 10.9900391,5.54910156 C10.6959375,5.85917969 10.1610156,5.83113281 9.79738281,5.4865625 C9.79734375,5.48652344 9.79726563,5.48644531 9.79722656,5.48640625 C9.43363281,5.14164062 9.37707031,4.60882812 9.67113281,4.29867187 Z M9.51996094,7.09964844 C9.38203125,7.24511719 9.18632813,7.32097656 8.96691406,7.31433594 C8.73519531,7.30691406 8.50800781,7.20839844 8.3271875,7.03695312 C7.96355469,6.6921875 7.90699219,6.159375 8.20109375,5.84921875 C8.33320312,5.70988281 8.51890625,5.6340625 8.72648437,5.6340625 C8.73570312,5.6340625 8.74492187,5.63421875 8.75414062,5.63449219 C8.98578125,5.64191406 9.21292969,5.74039062 9.39371094,5.91171875 C9.39375,5.91175781 9.39382812,5.91183594 9.39386719,5.911875 C9.57464844,6.08332031 9.68511719,6.30492187 9.70488281,6.5359375 C9.72355469,6.75394531 9.65789063,6.95414062 9.51996094,7.09964844 Z M10.95625,3.311875 C10.9375781,3.09386719 11.0032422,2.89367187 11.1411719,2.74816406 C11.2732812,2.60886719 11.4589453,2.53300781 11.6665625,2.53300781 C11.6757031,2.53300781 11.6849609,2.53316406 11.6942187,2.5334375 C11.9259375,2.54089844 12.153125,2.639375 12.3339062,2.81082031 C12.6975,3.15554687 12.7540625,3.68839844 12.46,3.99855469 C12.3220703,4.14402344 12.1251953,4.21988281 11.9069531,4.21324219 C11.6752734,4.20585937 11.4480859,4.10734375 11.2673047,3.93589844 C11.0864844,3.76449219 10.9760547,3.54285156 10.95625,3.311875 Z" id="Shape"></path>
                        </g>
                    </g>
                </g>
            </g>
        </g>
    </g>
</svg>