<?xml version="1.0" encoding="UTF-8"?>
<svg width="20px" height="20px" viewBox="0 0 20 20" version="1.1" xmlns="http://www.w3.org/2000/svg" xmlns:xlink="http://www.w3.org/1999/xlink">
    <!-- Generator: Sketch 53.2 (72643) - https://sketchapp.com -->
    <title>no-smoking</title>
    <desc>Created with Sketch.</desc>
    <g id="Page-1" stroke="none" stroke-width="1" fill="none" fill-rule="evenodd">
        <g id="03_Place-Detail-4-hover" transform="translate(-916.000000, -772.000000)" fill="#5D5D5D" fill-rule="nonzero">
            <g id="popup">
                <g id="Group-6" transform="translate(435.000000, 694.000000)">
                    <g id="1" transform="translate(452.000000, 78.000000)">
                        <g id="no-smoking" transform="translate(29.000000, 0.000000)">
                            <path d="M19.151759,9.72632653 L13.8944218,9.72632653 L10.6649174,9.72632653 L19.0391059,0.933387755 C19.18931,0.775673469 19.18931,0.539102041 19.0391059,0.381346939 C18.8889018,0.223632653 18.6635957,0.223632653 18.5133528,0.381346939 L9.61344995,9.72632653 L0.375510204,9.72632653 C0.150204082,9.72632653 0,9.88404082 0,10.1206122 L0,12.4864082 C0,12.7229796 0.150204082,12.8806939 0.375510204,12.8806939 L6.60921283,12.8806939 L0.488163265,19.3078367 C0.337959184,19.465551 0.337959184,19.7021224 0.488163265,19.8598776 C0.563265306,19.9387347 0.638367347,19.9781633 0.751020408,19.9781633 C0.863673469,19.9781633 0.93877551,19.9387347 1.01387755,19.8598776 L7.66068027,12.8807347 L13.8943829,12.8807347 L19.1517201,12.8807347 C19.3770262,12.8807347 19.5272303,12.7230204 19.5272303,12.486449 L19.5272303,10.1206531 C19.5273081,9.88404082 19.3770651,9.72632653 19.151759,9.72632653 Z M0.751059281,12.0921224 L0.751059281,10.514898 L8.86239067,10.514898 L7.36027211,12.0921224 L0.751059281,12.0921224 Z M9.91385811,10.514898 L13.5189116,10.514898 L13.5189116,12.0921224 L8.41173955,12.0921224 L9.91385811,10.514898 Z M18.7762488,12.0921224 L14.269932,12.0921224 L14.269932,10.514898 L18.7762488,10.514898 L18.7762488,12.0921224 L18.7762488,12.0921224 Z" id="Shape"></path>
                            <path d="M0.751059281,9.09542857 C0.976365403,9.09542857 1.12656948,8.93771429 1.12656948,8.70114286 C1.12656948,6.84791837 1.95273081,5.38902041 3.00419825,5.38902041 L4.88182702,5.38902041 C5.06958212,5.38902041 5.2197862,5.27073469 5.25733722,5.07359184 C5.29488824,4.91587755 5.2197862,4.75816327 5.10713314,4.67930612 C4.73162293,4.36387755 4.50627794,3.93012245 4.50627794,3.41755102 C4.50627794,2.55008163 5.18223518,1.84036735 6.00835763,1.84036735 C6.23366375,1.84036735 6.38386783,1.68265306 6.38386783,1.44608163 C6.38386783,1.2095102 6.23366375,1.05179592 6.00835763,1.05179592 C4.76913508,1.05179592 3.75521866,2.11640816 3.75521866,3.41759184 C3.75521866,3.85130612 3.86787172,4.24563265 4.05562682,4.6004898 L3.00419825,4.6004898 C1.50211856,4.6004898 0.375510204,6.37485714 0.375510204,8.70122449 C0.375510204,8.93771429 0.525753158,9.09542857 0.751059281,9.09542857 Z" id="Path"></path>
                            <path d="M6.9847619,0.775673469 C7.54806608,1.05167347 7.88602527,1.60371429 7.88602527,2.23457143 C7.88602527,3.10204082 7.21006803,3.81179592 6.38394558,3.81179592 C6.15863946,3.81179592 6.00843537,3.9695102 6.00843537,4.20608163 C6.00843537,4.40322449 6.12108844,4.56093878 6.27129252,4.60036735 C6.53414966,4.67922449 6.75945578,5.03408163 6.75945578,5.38897959 C6.75945578,5.82269388 6.4214966,6.17759184 6.0083965,6.17759184 L3.75525753,6.17759184 C2.66623907,6.17759184 1.87762877,7.24220408 1.87762877,8.70110204 C1.87762877,8.93767347 2.02783285,9.09538776 2.25313897,9.09538776 C2.47844509,9.09538776 2.62864917,8.93767347 2.62864917,8.70110204 C2.62864917,7.71534694 3.11685131,6.96616327 3.75521866,6.96616327 L6.00835763,6.96616327 C6.83451895,6.96616327 7.51047619,6.25640816 7.51047619,5.38893878 C7.51047619,5.0735102 7.39782313,4.71861224 7.21006803,4.44261224 C8.03622935,4.0877551 8.63704568,3.22028571 8.63704568,2.23453061 C8.63704568,1.28820408 8.11133139,0.460163265 7.28517007,0.065877551 C7.09741497,-0.0129795918 6.87210884,0.065877551 6.7970068,0.263020408 C6.72190476,0.460163265 6.7970068,0.696816327 6.9847619,0.775673469 Z" id="Path"></path>
                        </g>
                    </g>
                </g>
            </g>
        </g>
    </g>
</svg>