<?xml version="1.0" encoding="UTF-8"?>
<svg width="27px" height="20px" viewBox="0 0 27 20" version="1.1" xmlns="http://www.w3.org/2000/svg" xmlns:xlink="http://www.w3.org/1999/xlink">
    <!-- Generator: Sketch 53.2 (72643) - https://sketchapp.com -->
    <title>icon_wifi</title>
    <desc>Created with Sketch.</desc>
    <g id="Page-1" stroke="none" stroke-width="1" fill="none" fill-rule="evenodd">
        <g id="03_Place-Detail-4-hover" transform="translate(-479.000000, -772.000000)" fill="#5D5D5D" fill-rule="nonzero">
            <g id="popup">
                <g id="Group-6" transform="translate(435.000000, 694.000000)">
                    <g id="1" transform="translate(30.000000, 78.000000)">
                        <g id="icon_wifi" transform="translate(14.000000, 0.000000)">
                            <path d="M26.6414634,5.91365854 C23.1082927,2.38 18.402439,0.434146341 13.3921951,0.434146341 C8.38195122,0.434146341 3.67658537,2.3795122 0.142926829,5.91365854 C-0.047804878,6.10439024 -0.047804878,6.41268293 0.142926829,6.60341463 C0.333658537,6.79414634 0.64195122,6.79414634 0.832682927,6.60341463 C4.18195122,3.25365854 8.64243902,1.40926829 13.3921951,1.40926829 C18.1419512,1.40926829 22.602439,3.25365854 25.9517073,6.60292683 C26.0468293,6.69804878 26.1717073,6.74585366 26.2965854,6.74585366 C26.4214634,6.74585366 26.5463415,6.69804878 26.6414634,6.60292683 C26.8321951,6.41268293 26.8321951,6.10390244 26.6414634,5.91365854 Z" id="Path"></path>
                            <path d="M3.0102439,8.7804878 C2.8195122,8.97121951 2.8195122,9.2795122 3.0102439,9.4702439 C3.10536585,9.56536585 3.2302439,9.61317073 3.35512195,9.61317073 C3.48,9.61317073 3.60487805,9.56536585 3.7,9.4702439 C9.04390244,4.12585366 17.7395122,4.12585366 23.0839024,9.4702439 C23.2746341,9.66097561 23.5829268,9.66097561 23.7736585,9.4702439 C23.9643902,9.2795122 23.9643902,8.97121951 23.7736585,8.7804878 C18.0497561,3.05658537 8.73512195,3.05560976 3.0102439,8.7804878 Z" id="Path"></path>
                            <path d="M13.3921951,8.5404878 C10.5507317,8.5404878 7.88243902,9.64439024 5.87804878,11.6482927 C5.68731707,11.8390244 5.68731707,12.1473171 5.87804878,12.3380488 C6.06878049,12.5287805 6.37707317,12.5287805 6.56780488,12.3380488 C8.38780488,10.5185366 10.8112195,9.51609756 13.3921951,9.51609756 C15.9731707,9.51609756 18.3965854,10.5185366 20.2165854,12.3380488 C20.3117073,12.4331707 20.4365854,12.4809756 20.5614634,12.4809756 C20.6863415,12.4809756 20.8112195,12.4331707 20.9063415,12.3380488 C21.0970732,12.1473171 21.0970732,11.8390244 20.9063415,11.6482927 C18.902439,9.64439024 16.2336585,8.5404878 13.3921951,8.5404878 Z" id="Path"></path>
                            <path d="M13.3921951,13.1297561 C11.6302439,13.1297561 10.1965854,14.5634146 10.1965854,16.3258537 C10.1965854,18.0882927 11.6302439,19.5219512 13.3921951,19.5219512 C15.1546341,19.5219512 16.5882927,18.0882927 16.5882927,16.3258537 C16.5882927,14.5634146 15.1546341,13.1297561 13.3921951,13.1297561 Z M13.3921951,18.5458537 C12.1678049,18.5458537 11.1721951,17.5497561 11.1721951,16.3253659 C11.1721951,15.1009756 12.1682927,14.104878 13.3921951,14.104878 C14.6160976,14.104878 15.6126829,15.1009756 15.6126829,16.3253659 C15.6126829,17.5497561 14.6165854,18.5458537 13.3921951,18.5458537 Z" id="Shape"></path>
                        </g>
                    </g>
                </g>
            </g>
        </g>
    </g>
</svg>